<svg version="1.1" id="Layer_1" xmlns="http://www.w3.org/2000/svg" xmlns:xlink="http://www.w3.org/1999/xlink" x="0px" y="0px"
	 width="100%" viewBox="0 0 2048 1945" enable-background="new 0 0 2048 1945" xml:space="preserve">
<path fill="#000000" opacity="1.000000" stroke="none" 
	d="
M1.000006,1387.000000 
	C1.000000,925.080383 1.000000,463.160706 1.000000,1.000000 
	C319.364227,1.000000 637.728516,1.000000 956.719482,1.399075 
	C949.704224,3.196941 942.062134,4.595324 934.420166,5.994641 
	C915.803406,9.403535 897.029846,12.142696 878.622498,16.447325 
	C865.387451,19.542383 852.573975,24.535120 839.696411,29.036037 
	C828.030090,33.113560 816.389954,37.334332 805.002502,42.120586 
	C795.400574,46.156361 786.118896,50.977318 776.804932,55.667992 
	C768.307739,59.947346 759.811707,64.266449 751.581360,69.028175 
	C742.421387,74.327744 733.481506,80.022469 724.593079,85.772682 
	C713.769409,92.774841 702.818542,99.632660 692.443970,107.261726 
	C682.703430,114.424568 673.586548,122.444664 664.299438,130.212097 
	C657.056030,136.270172 649.860779,142.395554 642.850159,148.719467 
	C636.243347,154.679138 629.703247,160.740265 623.501892,167.114838 
	C615.995239,174.831223 608.780762,182.839554 601.617981,190.880249 
	C595.864685,197.338684 590.314514,203.981842 584.787659,210.637299 
	C578.525085,218.178680 572.266052,225.729218 566.238464,233.457535 
	C561.772278,239.183868 557.637573,245.171600 553.430664,251.096405 
	C549.265564,256.962189 544.982117,262.760010 541.133179,268.830200 
	C535.390076,277.887604 529.907227,287.113281 524.455627,296.351135 
	C519.920593,304.035858 515.349243,311.715942 511.234741,319.627350 
	C506.823395,328.109619 502.944275,336.868011 498.801178,345.490662 
	C494.639709,354.151581 489.970520,362.603363 486.363159,371.487640 
	C480.628632,385.610992 475.538757,399.998077 470.277405,414.310822 
	C466.858917,423.610168 463.321472,432.882141 460.366852,442.331970 
	C455.219482,458.794891 450.305939,475.336304 445.623779,491.937775 
	C441.517273,506.498230 437.509766,521.104614 434.106873,535.840454 
	C430.658661,550.772339 427.793060,565.849304 425.064850,580.933777 
	C422.446472,595.410889 420.188538,609.958008 418.056183,624.515991 
	C417.009064,631.664673 416.718567,638.920593 415.885162,646.104736 
	C414.335480,659.463135 411.987061,672.764709 411.168640,686.163025 
	C410.146912,702.890442 410.334595,719.691833 409.999786,736.461243 
	C409.963226,738.292786 409.924652,740.124329 409.543243,742.216431 
	C409.430542,749.333984 409.661560,756.190979 409.936035,763.511841 
	C410.315979,776.079285 410.459869,788.192017 411.034882,800.284241 
	C411.858429,817.602600 412.935638,834.909790 414.026886,852.214050 
	C414.565918,860.761230 414.947388,869.352600 416.152527,877.816833 
	C419.218231,899.348999 422.380829,920.878113 426.133179,942.298340 
	C429.030365,958.836731 432.657349,975.258911 436.376648,991.638062 
	C439.331268,1004.649597 442.676971,1017.585205 446.281128,1030.433350 
	C451.110931,1047.650513 456.182251,1064.805298 461.491669,1081.880615 
	C464.624268,1091.955078 468.260437,1101.882812 471.949524,1111.772217 
	C477.846039,1127.579102 483.962982,1143.303955 490.012909,1159.053345 
	C491.811340,1163.735107 493.649506,1168.402832 495.553345,1173.042603 
	C499.538788,1182.755493 503.460815,1192.497070 507.634003,1202.129272 
	C511.312073,1210.618652 515.256104,1218.994019 519.156128,1227.385498 
	C523.332642,1236.372070 527.439392,1245.396606 531.864441,1254.260742 
	C536.063904,1262.673096 540.576721,1270.931396 545.056458,1279.200684 
	C553.115540,1294.077026 561.067566,1309.017334 569.503601,1323.678223 
	C571.340820,1326.870850 571.354431,1329.383179 569.536499,1331.817139 
	C563.046875,1340.505981 559.828125,1350.684082 557.201721,1360.824585 
	C553.155518,1376.446655 552.978455,1392.582520 554.089111,1408.638184 
	C554.573303,1415.637939 555.273315,1422.745483 557.030396,1429.503662 
	C559.306824,1438.259766 562.347290,1446.875488 565.782776,1455.254883 
	C569.038269,1463.195190 572.451355,1471.276245 577.212952,1478.339478 
	C582.626038,1486.369019 589.744629,1493.230713 595.880432,1500.795776 
	C603.822021,1510.587280 614.095947,1517.562622 624.592529,1524.001831 
	C637.095642,1531.671997 650.674194,1536.924927 665.011169,1540.737183 
	C683.577332,1545.673828 702.141418,1546.028809 720.923218,1543.965210 
	C741.245056,1541.732788 759.934204,1534.260620 777.601990,1524.429688 
	C784.542114,1520.568115 790.564636,1515.003784 796.831726,1509.997925 
	C809.550842,1499.838623 819.420349,1487.048584 827.627991,1473.269653 
	C835.308594,1460.375610 840.681335,1446.327393 843.969299,1431.448608 
	C848.437683,1411.228149 849.820129,1391.082642 844.909973,1370.864746 
	C842.382202,1360.456421 840.051086,1349.780273 835.697937,1340.093872 
	C830.868835,1329.348267 824.348328,1319.236450 817.591492,1309.525513 
	C812.617310,1302.376709 806.699280,1295.587769 800.082825,1289.952637 
	C791.598145,1282.726318 782.309021,1276.293701 772.766785,1270.508301 
	C765.190613,1265.915039 757.007263,1261.828613 748.560608,1259.290894 
	C738.006653,1256.120239 727.298706,1253.264893 715.999756,1252.702393 
	C703.134033,1252.061890 690.380493,1251.298828 677.796631,1253.445557 
	C674.410400,1248.040527 670.680054,1242.627319 667.507507,1236.904785 
	C661.687378,1226.407227 656.113831,1215.769897 650.587769,1205.113037 
	C642.792725,1190.080200 634.911682,1175.084961 627.502625,1159.861816 
	C623.200684,1151.022583 619.743774,1141.771606 615.919250,1132.700562 
	C611.930786,1123.240723 607.587036,1113.910278 604.060303,1104.280884 
	C597.980225,1087.679565 592.312805,1070.924194 586.665771,1054.168335 
	C583.038147,1043.404297 579.487915,1032.599609 576.392029,1021.674622 
	C572.935974,1009.478821 569.865356,997.166138 566.931885,984.831787 
	C563.161133,968.977417 559.310242,953.125366 556.202393,937.134644 
	C553.021545,920.768555 550.535522,904.260193 548.069153,887.765686 
	C546.927551,880.131104 546.679382,872.367310 545.803040,864.687561 
	C544.650696,854.589294 542.893677,844.546387 542.095642,834.424561 
	C541.043579,821.078674 540.399292,807.685791 540.078735,794.301147 
	C539.743042,780.279907 539.762634,766.239746 540.048157,752.216492 
	C540.520813,729.002930 541.215881,705.792053 542.055786,682.588623 
	C542.395508,673.202820 543.046692,663.803467 544.115295,654.474365 
	C545.830078,639.503174 547.680603,624.532166 550.079468,609.658752 
	C552.859497,592.422668 556.260864,575.286011 559.472290,558.121033 
	C560.130920,554.601196 561.146423,551.148376 561.991028,547.663025 
	C564.134766,538.816223 566.015930,529.895325 568.488770,521.141541 
	C571.009094,512.219421 574.070312,503.448273 576.966125,494.634491 
	C580.758301,483.092316 584.429260,471.504639 588.525330,460.070129 
	C590.941528,453.325165 594.082825,446.840210 596.891479,440.235535 
	C602.214539,427.717773 607.239380,415.062164 612.950378,402.724121 
	C617.170288,393.607391 622.205444,384.861847 627.017029,376.026917 
	C632.156433,366.589905 637.150208,357.051544 642.777710,347.908386 
	C648.517883,338.582184 654.813904,329.586090 661.113770,320.619202 
	C670.190430,307.699951 678.921753,294.476349 688.850220,282.234070 
	C699.421570,269.199036 709.478394,255.615723 722.555481,244.738007 
	C731.368713,237.407043 739.428772,229.152237 748.400635,222.035355 
	C758.170654,214.285355 768.459534,207.157639 778.800903,200.171280 
	C785.645081,195.547562 792.845093,191.398056 800.132690,187.497681 
	C807.658386,183.469940 815.451111,179.932892 823.184875,176.304626 
	C832.128296,172.108887 840.978577,167.652496 850.152893,164.026840 
	C862.066345,159.318680 874.152649,154.982101 886.361267,151.104843 
	C899.226501,147.019043 912.326843,143.674881 925.316772,139.979324 
	C928.609009,139.042709 931.810547,137.641449 935.158936,137.074921 
	C946.600220,135.139053 958.075867,133.393188 969.562134,131.739349 
	C981.237671,130.058243 992.897583,127.927940 1004.641479,127.132530 
	C1030.149170,125.404892 1055.537476,127.878273 1080.609131,132.274734 
	C1094.334961,134.681656 1107.839966,138.845337 1121.098389,143.257584 
	C1131.242676,146.633560 1140.867920,151.587601 1150.675171,155.949600 
	C1154.840210,157.802155 1159.003784,159.720490 1162.953125,161.983978 
	C1172.716309,167.579697 1182.481934,173.191315 1191.999146,179.189087 
	C1198.169800,183.077911 1203.991943,187.542862 1209.810181,191.960495 
	C1215.592285,196.350708 1221.300049,200.858414 1226.801270,205.592377 
	C1230.771362,209.008621 1234.258179,212.980103 1238.127563,216.521408 
	C1242.582153,220.598236 1247.517212,224.186340 1251.706909,228.507187 
	C1257.437988,234.417694 1262.761841,240.735489 1268.082153,247.029205 
	C1276.117676,256.534821 1284.339966,265.912354 1291.852905,275.821808 
	C1299.691162,286.160004 1306.878296,296.999420 1314.165771,307.744812 
	C1318.548950,314.207916 1322.811401,320.776398 1326.711304,327.537994 
	C1331.564087,335.951508 1336.079468,344.564667 1340.567505,353.181732 
	C1344.708496,361.132202 1348.788574,369.123260 1352.585815,377.241333 
	C1356.290894,385.162537 1359.552856,393.289825 1363.104370,401.284454 
	C1366.281250,408.435822 1370.064209,415.355835 1372.738037,422.685028 
	C1378.472656,438.404480 1383.854126,454.260406 1389.019043,470.177673 
	C1393.280762,483.311584 1397.395874,496.516754 1400.880127,509.871948 
	C1403.796875,521.051941 1405.335571,532.587830 1408.149170,543.799316 
	C1412.558472,561.368408 1414.207275,579.285828 1416.192749,597.195801 
	C1416.488403,599.862854 1415.648560,603.902222 1420.314575,605.023865 
	C1431.228760,607.647522 1442.103882,610.459351 1452.912964,613.487061 
	C1462.453857,616.159424 1471.912354,619.138245 1481.356323,622.141541 
	C1495.446045,626.622070 1509.496582,631.225952 1523.552856,635.811157 
	C1530.656982,638.128479 1537.721069,640.570435 1544.844238,642.826477 
	C1545.995117,643.191040 1547.360840,642.877686 1549.061890,642.877686 
	C1548.636475,637.524475 1548.409180,632.611572 1547.824707,627.741516 
	C1546.653320,617.980408 1545.177856,608.255554 1544.025757,598.492371 
	C1542.237305,583.335022 1541.145630,568.074707 1538.781738,553.011292 
	C1536.050659,535.608215 1532.531250,518.313477 1528.845093,501.080505 
	C1525.850464,487.080017 1522.330566,473.179596 1518.620850,459.348175 
	C1515.502441,447.721771 1512.040771,436.170593 1508.252808,424.744690 
	C1503.047119,409.042664 1497.451782,393.468292 1491.899048,377.883514 
	C1489.354614,370.742157 1486.720825,363.617920 1483.741455,356.651001 
	C1481.319702,350.988403 1478.283691,345.590729 1475.592285,340.040497 
	C1473.393311,335.505798 1471.278931,330.929504 1469.166504,326.353394 
	C1465.289551,317.954285 1461.752319,309.380249 1457.491577,301.181549 
	C1453.485596,293.472595 1448.709595,286.165131 1444.306763,278.660858 
	C1438.740112,269.172760 1433.483887,259.488953 1427.583008,250.214523 
	C1421.853271,241.209396 1415.493530,232.604233 1409.380859,223.844025 
	C1404.127197,216.314865 1399.088379,208.617065 1393.488037,201.353592 
	C1387.053833,193.008835 1380.279663,184.907745 1373.328491,176.985825 
	C1367.375488,170.201401 1361.121582,163.660690 1354.718872,157.295715 
	C1344.704224,147.340271 1334.536621,137.534149 1324.267578,127.840820 
	C1318.263306,122.173180 1312.133301,116.602570 1305.703125,111.431877 
	C1298.219604,105.414040 1290.379150,99.835831 1282.631226,94.152023 
	C1276.634399,89.752823 1270.706909,85.226562 1264.451416,81.220718 
	C1255.816284,75.691002 1246.942139,70.528610 1238.094360,65.338440 
	C1230.292603,60.761921 1222.589478,55.948376 1214.479248,51.982967 
	C1202.254639,46.005779 1189.796509,40.481918 1177.278442,35.137897 
	C1168.639404,31.449860 1159.795044,28.211302 1150.930542,25.089510 
	C1133.868652,19.080761 1116.672974,13.570257 1098.699219,10.776649 
	C1083.531860,8.419231 1068.431274,5.628626 1053.319946,2.924546 
	C1052.459351,2.770550 1051.769287,1.663508 1051.000000,1.000012 
	C1383.610474,1.000000 1716.220825,1.000000 2049.000000,1.000000 
	C2049.000000,470.030914 2049.000000,939.061829 2048.596680,1408.715210 
	C2047.796631,1408.332520 2047.154175,1407.354004 2047.041748,1406.317993 
	C2045.960938,1396.354370 2045.504639,1386.290405 2043.833984,1376.430542 
	C2040.917236,1359.216431 2037.687622,1342.030396 2033.793457,1325.014648 
	C2030.747559,1311.706055 2026.792114,1298.580688 2022.702148,1285.542847 
	C2018.343018,1271.646851 2013.728760,1257.804443 2008.523315,1244.207642 
	C2003.761841,1231.770630 1998.276611,1219.594116 1992.709839,1207.486938 
	C1988.091919,1197.443237 1982.897095,1187.664551 1977.946777,1177.774170 
	C1974.832031,1171.551392 1971.901489,1165.224365 1968.508057,1159.156738 
	C1965.641846,1154.031738 1962.138794,1149.267212 1959.076416,1144.246338 
	C1953.697754,1135.428223 1948.783936,1126.306519 1943.048584,1117.731079 
	C1935.288208,1106.127686 1927.192261,1094.726440 1918.769653,1083.594482 
	C1909.644531,1071.534424 1900.058105,1059.819092 1890.518311,1048.078857 
	C1884.911011,1041.178467 1879.110107,1034.427002 1873.200806,1027.782471 
	C1867.222534,1021.060486 1861.024658,1014.532776 1854.882568,1007.957764 
	C1849.633911,1002.339111 1844.341309,996.761108 1839.043457,991.188660 
	C1833.211426,985.054565 1827.445435,978.853333 1821.469971,972.861694 
	C1817.567749,968.948975 1813.259644,965.444153 1809.282471,961.602234 
	C1803.112305,955.641907 1797.322632,949.264404 1790.915649,943.577515 
	C1780.131226,934.005432 1768.996216,924.827881 1757.994385,915.501160 
	C1751.202515,909.743530 1744.575928,903.768005 1737.525024,898.345459 
	C1730.127686,892.656433 1722.243530,887.604919 1714.701660,882.097534 
	C1708.865723,877.835938 1703.405884,873.045166 1697.465820,868.943054 
	C1686.573242,861.420959 1675.516113,854.130737 1664.402344,846.937439 
	C1654.819580,840.735107 1645.113647,834.718201 1635.365479,828.778198 
	C1628.161865,824.388672 1620.823120,820.218933 1613.507080,816.016418 
	C1605.891235,811.641785 1598.339233,807.137878 1590.562988,803.065125 
	C1579.968018,797.516174 1569.201416,792.293152 1558.481567,786.984924 
	C1548.703735,782.143188 1539.052002,777.000305 1529.051880,772.665405 
	C1515.981201,766.999451 1502.618530,762.007751 1489.389282,756.706848 
	C1480.887939,753.300354 1472.503418,749.571350 1463.883911,746.498901 
	C1449.486328,741.366577 1435.004517,736.450500 1420.444702,731.798584 
	C1402.485962,726.060852 1384.411133,720.686157 1366.386230,715.155518 
	C1362.964966,714.105713 1359.588013,712.865417 1356.111450,712.050781 
	C1347.246948,709.973511 1338.331909,708.113037 1329.447876,706.118042 
	C1317.507446,703.436646 1305.640625,700.375732 1293.625000,698.094421 
	C1280.780518,695.655762 1267.796387,693.956360 1254.879761,691.893005 
	C1242.773804,689.959351 1230.716309,687.664307 1218.564697,686.090942 
	C1205.374268,684.383057 1192.097778,683.345093 1178.862549,681.978027 
	C1163.008667,680.340515 1147.187256,678.261414 1131.297974,677.128784 
	C1118.070557,676.185913 1104.766724,676.129578 1091.494385,676.044250 
	C1067.163452,675.887939 1042.830688,676.033264 1018.499207,675.931152 
	C1016.709412,675.923645 1014.106384,675.509399 1013.269287,674.313110 
	C1008.018311,666.809204 1003.069702,659.087036 998.197144,651.326538 
	C992.238159,641.835571 983.949402,634.573242 975.239136,627.909119 
	C963.250671,618.736877 950.295044,611.334473 935.893738,606.133057 
	C923.152283,601.531189 910.136597,598.500183 896.881287,597.222168 
	C877.721436,595.374878 858.792236,598.083374 840.446228,604.041992 
	C825.642395,608.850281 811.857422,615.658081 799.194153,624.871704 
	C788.014526,633.005859 778.213745,642.506042 770.000122,653.481262 
	C763.985901,661.517639 758.487366,670.063965 753.812988,678.938171 
	C750.286377,685.633484 748.675964,693.309509 745.771362,700.367432 
	C740.940430,712.106201 740.070251,724.590881 739.181702,736.914978 
	C737.981079,753.567688 740.002930,770.104370 745.070435,786.091248 
	C747.523865,793.831299 749.918091,801.746460 753.663635,808.887634 
	C760.998047,822.871094 769.848206,835.808289 781.265564,847.071533 
	C791.523804,857.191284 802.375549,866.407288 815.161377,872.840088 
	C824.815979,877.697571 835.294189,880.900513 845.336182,885.009949 
	C857.629333,890.040588 870.745544,889.863953 883.592773,890.780884 
	C891.045959,891.312805 898.711182,890.039490 906.178711,888.905273 
	C915.027283,887.561340 924.155945,886.545349 932.453064,883.471008 
	C942.732788,879.661987 952.411621,874.122131 962.099731,868.868408 
	C967.574097,865.899780 973.264404,862.722046 977.598389,858.381348 
	C987.340393,848.624329 996.898376,838.551575 1005.356873,827.692566 
	C1010.749878,820.768982 1013.922363,812.139221 1018.390930,804.448975 
	C1019.132324,803.173035 1021.423828,802.093445 1022.987549,802.108582 
	C1038.927002,802.263000 1054.864624,802.639221 1070.801758,803.001709 
	C1083.907104,803.299805 1097.016113,803.534302 1110.114502,804.033936 
	C1123.161255,804.531616 1136.216553,805.068542 1149.232178,806.059143 
	C1162.499634,807.068787 1175.768433,808.314575 1188.956543,810.061279 
	C1209.554443,812.789307 1230.167969,815.560425 1250.617188,819.199036 
	C1266.324585,821.993896 1281.839478,825.949036 1297.344360,829.775635 
	C1308.233765,832.463135 1318.964355,835.795166 1329.762085,838.852661 
	C1338.973389,841.460938 1348.212891,843.977417 1357.377319,846.741943 
	C1364.847412,848.995300 1372.247681,851.488098 1379.638062,853.995300 
	C1390.831543,857.792603 1402.018799,861.612427 1413.152222,865.580872 
	C1420.648193,868.252686 1428.094116,871.079712 1435.476685,874.050354 
	C1444.692139,877.758362 1453.878052,881.552429 1462.963379,885.565918 
	C1468.726318,888.111816 1474.243530,891.208191 1479.941284,893.909302 
	C1488.894043,898.153564 1497.970215,902.141602 1506.874634,906.483093 
	C1515.064697,910.476318 1523.100586,914.786377 1531.197998,918.969177 
	C1538.285767,922.630615 1545.500488,926.073242 1552.411133,930.043945 
	C1559.911987,934.353699 1567.054321,939.282715 1574.483887,943.722595 
	C1583.718018,949.240845 1593.269287,954.245667 1602.350342,959.998352 
	C1613.606079,967.128662 1624.596680,974.687622 1635.559937,982.266663 
	C1646.189087,989.614685 1656.807373,996.999451 1667.110596,1004.790955 
	C1674.643677,1010.487671 1681.643799,1016.887207 1688.908569,1022.940979 
	C1695.753052,1028.644409 1702.749512,1034.171875 1709.466064,1040.021240 
	C1716.834351,1046.438354 1724.025757,1053.063721 1731.165039,1059.736572 
	C1735.566040,1063.849976 1739.779663,1068.169067 1743.976929,1072.493286 
	C1747.596313,1076.222290 1751.022339,1080.138672 1754.625610,1083.884033 
	C1760.686646,1090.183594 1767.094360,1096.172485 1772.856689,1102.731079 
	C1780.645630,1111.596191 1788.030884,1120.820557 1795.459106,1129.996338 
	C1801.085449,1136.946289 1806.812012,1143.847412 1811.948975,1151.153564 
	C1819.629150,1162.077148 1826.992310,1173.233887 1834.191650,1184.482666 
	C1842.034058,1196.736450 1849.866089,1209.019409 1857.085083,1221.642944 
	C1863.230347,1232.388794 1868.644165,1243.564819 1874.109741,1254.683960 
	C1878.610352,1263.840210 1883.090332,1273.039795 1886.904297,1282.492554 
	C1892.903076,1297.360596 1898.578857,1312.370972 1903.926147,1327.485840 
	C1907.977051,1338.935669 1911.328613,1350.633789 1914.935913,1362.238770 
	C1916.048096,1365.817017 1917.280884,1369.398193 1917.932983,1373.071411 
	C1919.845093,1383.843628 1921.719849,1394.631958 1923.186646,1405.471313 
	C1925.012085,1418.960938 1927.362305,1432.480835 1927.748779,1446.037109 
	C1928.181396,1461.212646 1926.984253,1476.466309 1925.889404,1491.642212 
	C1925.208008,1501.087646 1923.599365,1510.485352 1922.027954,1519.840698 
	C1921.057373,1525.618408 1919.417603,1531.287231 1918.001465,1536.985718 
	C1915.965332,1545.177490 1914.223633,1553.467529 1911.677002,1561.500122 
	C1909.279663,1569.061890 1906.263794,1576.460205 1903.052979,1583.723877 
	C1897.626953,1595.998535 1892.472656,1608.462524 1886.017944,1620.194336 
	C1879.198364,1632.589722 1871.069336,1644.272461 1863.364380,1656.170654 
	C1858.212158,1664.126465 1853.320068,1672.335205 1847.374878,1679.671753 
	C1839.874512,1688.927246 1831.087891,1697.133545 1823.471680,1706.303711 
	C1815.969116,1715.337158 1807.487671,1723.176636 1798.349609,1730.456299 
	C1789.879883,1737.203491 1781.958862,1744.671021 1773.249268,1751.077637 
	C1762.742554,1758.806274 1752.155518,1766.675659 1740.709961,1772.820557 
	C1723.085571,1782.282837 1705.061279,1791.221924 1686.526489,1798.697021 
	C1671.506958,1804.754150 1655.488037,1808.334473 1639.908325,1812.999756 
	C1637.566650,1813.700928 1635.240967,1814.568481 1632.842773,1814.949097 
	C1621.535156,1816.743286 1610.219238,1818.498291 1598.878784,1820.069214 
	C1586.215332,1821.823486 1573.540771,1824.544922 1560.838257,1824.741699 
	C1537.474609,1825.104004 1514.040527,1826.295654 1490.710693,1823.079346 
	C1475.923340,1821.040771 1460.988770,1820.047607 1446.222046,1817.888550 
	C1431.047241,1815.669922 1415.905029,1813.026489 1400.918457,1809.783691 
	C1387.415161,1806.861816 1374.105225,1803.009766 1360.778687,1799.319458 
	C1349.966431,1796.325195 1339.063354,1793.488525 1328.546387,1789.637451 
	C1313.146973,1783.998657 1298.011475,1777.623413 1282.874390,1771.296753 
	C1280.010498,1770.099731 1278.382935,1770.152100 1276.009888,1772.338745 
	C1267.695068,1779.999512 1259.234863,1787.522217 1250.526367,1794.730835 
	C1239.434937,1803.912109 1228.029175,1812.712891 1216.796021,1821.723877 
	C1209.577759,1827.514282 1202.510376,1833.495483 1195.222778,1839.196289 
	C1185.711304,1846.637085 1175.996826,1853.817871 1166.476074,1861.247070 
	C1162.364136,1864.455933 1162.610107,1866.414551 1167.475830,1868.741455 
	C1176.245239,1872.935303 1185.020386,1877.155396 1194.002441,1880.855957 
	C1204.343628,1885.116577 1214.916870,1888.812622 1225.380127,1892.778198 
	C1236.765625,1897.093384 1248.005859,1901.845093 1259.556763,1905.656250 
	C1271.894653,1909.727295 1284.495483,1913.016235 1297.028564,1916.475952 
	C1311.297974,1920.414917 1325.524902,1924.577271 1339.944214,1927.884033 
	C1355.205200,1931.383667 1370.652954,1934.087524 1386.054321,1936.949585 
	C1394.414185,1938.503052 1402.817749,1939.905273 1411.255249,1940.938110 
	C1421.696655,1942.216064 1432.196289,1943.015137 1442.658447,1944.136230 
	C1443.166382,1944.190796 1443.555542,1945.353394 1444.000000,1946.000000 
	C963.103333,1946.000000 482.206665,1946.000000 1.000000,1946.000000 
	C1.000000,1795.302490 1.000000,1644.604858 1.419968,1493.484863 
	C2.556702,1496.451660 3.464805,1499.813354 3.957886,1503.234863 
	C6.386008,1520.084106 8.104038,1537.061890 11.243511,1553.774414 
	C13.943672,1568.148193 17.813801,1582.344482 21.913414,1596.401367 
	C26.270267,1611.340454 30.973408,1626.226562 36.516647,1640.757568 
	C41.487148,1653.786987 47.600536,1666.399292 53.595348,1679.012573 
	C57.969425,1688.215820 62.600655,1697.340332 67.793213,1706.099243 
	C73.200478,1715.220093 79.305557,1723.937988 85.320595,1732.684448 
	C89.750809,1739.126221 94.259590,1745.549683 99.214050,1751.586792 
	C106.010483,1759.868042 113.151268,1767.876343 120.352997,1775.812378 
	C126.219559,1782.277100 132.042938,1788.852173 138.515427,1794.678589 
	C147.148666,1802.449707 156.322922,1809.629272 165.393799,1816.902100 
	C173.464066,1823.372559 181.481705,1829.949585 189.943176,1835.879395 
	C198.173859,1841.647217 206.867813,1846.770630 215.487473,1851.962646 
	C226.077332,1858.341431 236.523621,1865.047119 247.537384,1870.611084 
	C261.239166,1877.532959 275.431427,1883.490723 289.466461,1889.742188 
	C294.497742,1891.983032 299.633209,1894.019653 304.818848,1895.876587 
	C312.004486,1898.449585 319.288879,1900.745728 326.518951,1903.196167 
	C334.073456,1905.756470 341.487274,1908.847290 349.186707,1910.840698 
	C364.620697,1914.836670 380.206390,1918.246826 395.731537,1921.890015 
	C401.611969,1923.270020 407.435211,1925.078979 413.393707,1925.904785 
	C429.793121,1928.177490 446.227448,1930.249023 462.691223,1931.991455 
	C477.908417,1933.602051 493.160095,1935.324585 508.435547,1935.837402 
	C528.079468,1936.496826 547.762939,1936.088501 567.427979,1935.946533 
	C573.697632,1935.901245 579.988281,1935.475708 586.224365,1934.805298 
	C596.328369,1933.718872 606.399597,1932.319336 616.476868,1930.992798 
	C629.954285,1929.218384 643.493103,1927.782959 656.876221,1925.458008 
	C667.929321,1923.537598 678.773499,1920.440063 689.747925,1918.035767 
	C709.173340,1913.780029 728.686523,1909.907837 748.046387,1905.376953 
	C759.127014,1902.783813 769.972839,1899.191284 780.933105,1896.079346 
	C793.919312,1892.392456 806.997742,1889.004761 819.882141,1884.992310 
	C831.673645,1881.320312 843.295959,1877.089722 854.926331,1872.919434 
	C866.526306,1868.760254 878.198486,1864.741333 889.561768,1859.996948 
	C907.261047,1852.607056 924.742554,1844.693115 942.277527,1836.914062 
	C946.259521,1835.147705 950.065125,1832.987305 953.984070,1831.073975 
	C965.333557,1825.532471 976.741394,1820.108521 988.040100,1814.465698 
	C993.269714,1811.853882 998.316040,1808.871460 1003.415161,1806.003174 
	C1013.436523,1800.365845 1023.542969,1794.869019 1033.415527,1788.981201 
	C1043.125610,1783.189941 1052.608154,1777.015503 1062.155884,1770.954590 
	C1070.650024,1765.562622 1079.213989,1760.268066 1087.526001,1754.605835 
	C1093.762573,1750.357544 1099.587280,1745.510010 1105.705933,1741.081787 
	C1113.021851,1735.786621 1120.711914,1730.977417 1127.775391,1725.372314 
	C1137.367920,1717.760620 1146.518188,1709.592041 1155.861328,1701.666016 
	C1166.740234,1692.436646 1177.995361,1683.610840 1188.416260,1673.890625 
	C1203.871094,1659.474854 1218.828979,1644.520020 1233.815063,1629.610229 
	C1241.974487,1621.492432 1249.946167,1613.166382 1257.653076,1604.619141 
	C1265.142334,1596.313232 1272.187134,1587.606445 1279.423828,1579.072876 
	C1285.159180,1572.309570 1291.129639,1565.728271 1296.556763,1558.725830 
	C1302.476318,1551.088135 1307.762817,1542.962891 1313.555664,1535.222778 
	C1321.443970,1524.682373 1329.909546,1514.557373 1337.464844,1503.789185 
	C1345.377563,1492.511353 1352.531738,1480.699585 1359.969238,1469.090332 
	C1366.265625,1459.262329 1372.808228,1449.573608 1378.674072,1439.492798 
	C1386.390747,1426.230957 1393.568115,1412.654785 1400.941772,1399.194214 
	C1403.603516,1394.335327 1406.280884,1389.478882 1408.742065,1384.517578 
	C1412.497803,1376.946777 1416.028442,1369.264404 1419.786865,1361.695068 
	C1420.178345,1360.906372 1421.392334,1360.283081 1422.339478,1360.050415 
	C1433.558350,1357.294189 1444.941040,1355.103027 1455.994263,1351.803467 
	C1467.215210,1348.453979 1477.461670,1342.730835 1487.029053,1335.954346 
	C1492.433350,1332.126221 1497.934326,1328.337891 1502.824829,1323.906250 
	C1508.467651,1318.792847 1514.186401,1313.495850 1518.608765,1307.367065 
	C1525.000610,1298.508789 1530.511841,1288.975098 1535.900269,1279.447754 
	C1539.080444,1273.824829 1542.107666,1267.875366 1543.772461,1261.687744 
	C1546.730469,1250.693604 1549.334106,1239.644287 1550.350464,1228.111938 
	C1551.699585,1212.802734 1551.050537,1197.722656 1548.208008,1182.825195 
	C1545.679321,1169.573242 1541.116821,1156.872314 1534.564575,1144.868408 
	C1529.325806,1135.270630 1523.533691,1126.104248 1516.308228,1117.987915 
	C1511.129639,1112.170532 1505.220947,1106.960205 1499.332275,1101.830078 
	C1493.791870,1097.003296 1488.324829,1091.786987 1481.984009,1088.250977 
	C1470.268433,1081.717407 1458.382568,1075.623779 1445.071045,1072.156006 
	C1434.816406,1069.484741 1424.608521,1067.548828 1414.181274,1067.150635 
	C1404.437622,1066.778564 1394.647095,1067.706665 1384.875122,1067.988159 
	C1370.045898,1068.415161 1356.234131,1073.253174 1343.091553,1079.272217 
	C1332.752808,1084.006958 1323.073242,1090.499878 1313.810913,1097.194214 
	C1298.689453,1108.123169 1286.733032,1122.318970 1277.522705,1138.392578 
	C1270.039307,1151.452515 1263.666504,1165.291016 1261.328247,1180.433838 
	C1259.603516,1191.604126 1257.711060,1202.829224 1257.249756,1214.085571 
	C1256.939087,1221.666504 1258.892700,1229.358887 1260.008057,1236.975952 
	C1262.975342,1257.238281 1270.055176,1275.952515 1281.472534,1292.979370 
	C1285.062256,1298.332764 1288.460571,1303.864990 1292.539917,1308.827637 
	C1298.920654,1316.589966 1299.058105,1316.365845 1293.688721,1324.892334 
	C1291.335815,1328.628662 1289.379395,1332.613892 1287.222534,1336.474609 
	C1280.130859,1349.168701 1273.273560,1362.002197 1265.854736,1374.502075 
	C1260.023071,1384.327515 1253.559692,1393.782471 1247.254028,1403.320557 
	C1241.807373,1411.559448 1236.390503,1419.831177 1230.588135,1427.817993 
	C1224.637085,1436.009399 1218.246338,1443.882202 1212.025391,1451.876831 
	C1206.554077,1458.907837 1201.175659,1466.016724 1195.520020,1472.897095 
	C1191.570312,1477.702148 1187.176270,1482.139038 1183.064453,1486.814087 
	C1178.075439,1492.486328 1173.379639,1498.430420 1168.189087,1503.908325 
	C1159.758667,1512.805054 1151.078491,1521.467529 1142.411987,1530.137207 
	C1134.413696,1538.138184 1126.438965,1546.172852 1118.182495,1553.902832 
	C1111.696533,1559.975464 1104.783813,1565.591187 1098.084839,1571.437622 
	C1092.825317,1576.027710 1087.704468,1580.782715 1082.337646,1585.242554 
	C1075.791382,1590.682617 1069.025391,1595.857300 1062.403564,1601.207764 
	C1054.873901,1607.291992 1047.637939,1613.770264 1039.839722,1619.483887 
	C1029.571167,1627.007446 1018.894043,1633.974854 1008.364990,1641.140747 
	C996.666870,1649.102417 985.030396,1657.160156 973.192810,1664.909912 
	C963.730408,1671.104614 954.075684,1677.015259 944.376343,1682.835449 
	C937.196777,1687.143677 929.775330,1691.046509 922.522217,1695.234863 
	C915.725525,1699.159790 909.077820,1703.345825 902.240417,1707.196411 
	C891.570251,1713.205811 880.940186,1719.314331 870.025940,1724.854492 
	C857.957214,1730.980469 845.590210,1736.519043 833.347778,1742.302124 
	C827.932312,1744.860596 822.565979,1747.536133 817.067444,1749.903076 
	C807.068604,1754.207275 797.026794,1758.418335 786.927185,1762.479736 
	C780.316956,1765.138062 773.624939,1767.617554 766.875061,1769.897095 
	C760.265381,1772.129028 753.510071,1773.925415 746.865417,1776.058960 
	C737.883240,1778.943237 729.083130,1782.512085 719.958862,1784.810181 
	C703.701721,1788.905029 687.290283,1792.410522 670.883972,1795.881226 
	C661.458862,1797.875122 651.953125,1799.567749 642.418457,1800.944946 
	C629.117249,1802.866455 615.782166,1804.634888 602.412170,1805.976929 
	C586.359985,1807.588135 570.276733,1809.156982 554.168274,1809.860474 
	C539.364258,1810.506836 524.485840,1810.493164 509.682892,1809.824585 
	C495.237427,1809.172241 480.849609,1807.282227 466.429138,1806.018799 
	C460.511841,1805.500366 454.483307,1805.723022 448.665649,1804.698364 
	C433.726746,1802.067139 418.774750,1799.360962 404.021118,1795.868774 
	C388.998322,1792.312866 374.050446,1788.264893 359.363922,1783.521606 
	C348.397461,1779.979858 337.867523,1775.064453 327.208344,1770.604858 
	C323.344238,1768.988159 319.681641,1766.893799 315.905304,1765.062256 
	C308.214203,1761.331909 300.116486,1758.262939 292.896545,1753.778076 
	C280.801849,1746.264771 269.141022,1738.027832 257.536377,1729.760376 
	C250.656372,1724.858765 243.856781,1719.717773 237.700729,1713.958008 
	C229.822281,1706.586548 222.464798,1698.633057 215.183411,1690.655884 
	C207.336975,1682.059937 199.151993,1673.642700 192.361160,1664.246582 
	C183.866470,1652.492920 176.241196,1640.053467 168.964706,1627.490601 
	C158.380371,1609.216675 148.579529,1590.515747 141.685410,1570.432373 
	C137.630920,1558.620972 132.675507,1547.094116 129.120636,1535.143311 
	C125.739647,1523.776855 123.310608,1512.090210 121.102982,1500.423218 
	C119.249077,1490.625610 118.291443,1480.656860 116.988640,1470.757080 
	C116.495636,1467.010742 116.008331,1463.254639 115.759972,1459.486938 
	C115.108490,1449.603394 114.139000,1439.710327 114.153809,1429.822388 
	C114.166855,1421.112915 115.302086,1412.401978 116.011955,1403.697510 
	C116.532944,1397.308960 116.765480,1390.861206 117.836281,1384.560547 
	C119.968521,1372.014160 122.219025,1359.464111 125.118736,1347.078979 
	C127.709282,1336.014160 131.081100,1325.120972 134.409439,1314.244141 
	C136.689835,1306.791992 139.266968,1299.411865 142.108017,1292.154785 
	C145.670868,1283.054077 149.361893,1273.982056 153.511993,1265.138916 
	C157.573120,1256.485474 162.202408,1248.093506 166.724838,1239.663086 
	C172.048874,1229.738647 177.212799,1219.707275 183.027084,1210.072876 
	C188.642517,1200.767944 194.923065,1191.858521 201.048889,1182.869141 
	C206.489410,1174.885498 211.839310,1166.814453 217.742279,1159.178589 
	C223.747650,1151.410034 230.268509,1144.027954 236.762589,1136.651855 
	C247.512238,1124.442505 258.070038,1112.033936 269.369537,1100.348267 
	C279.223450,1090.157593 289.941467,1080.796631 300.370453,1071.169556 
	C306.465454,1065.543213 312.559998,1059.889404 318.993866,1054.665771 
	C324.356934,1050.311279 330.341766,1046.729004 335.792511,1042.473267 
	C338.133484,1040.645508 339.514038,1038.421753 338.189026,1034.596436 
	C335.002686,1025.397827 332.506439,1015.943909 330.065002,1006.506836 
	C325.497498,988.851746 321.170746,971.134460 316.735016,953.445190 
	C314.161194,943.181030 311.451935,932.948914 309.033173,922.648499 
	C307.670319,916.844910 306.773407,910.931824 305.591064,904.667664 
	C304.247131,905.252197 303.293152,905.485535 302.554504,906.017761 
	C297.487183,909.668457 292.394165,913.289551 287.444519,917.095886 
	C279.622223,923.111084 271.804535,929.140259 264.171051,935.390930 
	C255.308029,942.648315 246.633362,950.136292 237.900589,957.552063 
	C231.124146,963.306580 224.169022,968.874084 217.683060,974.941345 
	C209.893097,982.228333 202.444534,989.886780 194.979828,997.513245 
	C186.496368,1006.180725 177.776688,1014.659668 169.842239,1023.812256 
	C156.237335,1039.506104 142.997421,1055.525879 129.931473,1071.673584 
	C122.803604,1080.482666 116.178978,1089.716309 109.637955,1098.977783 
	C103.459862,1107.725464 97.394653,1116.580811 91.815910,1125.716309 
	C85.559250,1135.961548 79.786278,1146.509644 74.020065,1157.044800 
	C67.965027,1168.107666 61.689915,1179.089478 56.384598,1190.512451 
	C50.479286,1203.227295 45.231266,1216.276733 40.299610,1229.406738 
	C35.050915,1243.380737 30.359653,1257.570923 25.692274,1271.754639 
	C19.107662,1291.764648 14.622303,1312.250244 10.575881,1332.949463 
	C7.202096,1350.207764 5.424037,1367.579956 2.918362,1384.899292 
	C2.806033,1385.675781 1.662976,1386.303223 1.000006,1387.000000 
z"/>
<path fill="#764ABC" opacity="1.000000" stroke="none" 
	d="
M409.886963,741.955872 
	C409.924652,740.124329 409.963226,738.292786 409.999786,736.461243 
	C410.334595,719.691833 410.146912,702.890442 411.168640,686.163025 
	C411.987061,672.764709 414.335480,659.463135 415.885162,646.104736 
	C416.718567,638.920593 417.009064,631.664673 418.056183,624.515991 
	C420.188538,609.958008 422.446472,595.410889 425.064850,580.933777 
	C427.793060,565.849304 430.658661,550.772339 434.106873,535.840454 
	C437.509766,521.104614 441.517273,506.498230 445.623779,491.937775 
	C450.305939,475.336304 455.219482,458.794891 460.366852,442.331970 
	C463.321472,432.882141 466.858917,423.610168 470.277405,414.310822 
	C475.538757,399.998077 480.628632,385.610992 486.363159,371.487640 
	C489.970520,362.603363 494.639709,354.151581 498.801178,345.490662 
	C502.944275,336.868011 506.823395,328.109619 511.234741,319.627350 
	C515.349243,311.715942 519.920593,304.035858 524.455627,296.351135 
	C529.907227,287.113281 535.390076,277.887604 541.133179,268.830200 
	C544.982117,262.760010 549.265564,256.962189 553.430664,251.096405 
	C557.637573,245.171600 561.772278,239.183868 566.238464,233.457535 
	C572.266052,225.729218 578.525085,218.178680 584.787659,210.637299 
	C590.314514,203.981842 595.864685,197.338684 601.617981,190.880249 
	C608.780762,182.839554 615.995239,174.831223 623.501892,167.114838 
	C629.703247,160.740265 636.243347,154.679138 642.850159,148.719467 
	C649.860779,142.395554 657.056030,136.270172 664.299438,130.212097 
	C673.586548,122.444664 682.703430,114.424568 692.443970,107.261726 
	C702.818542,99.632660 713.769409,92.774841 724.593079,85.772682 
	C733.481506,80.022469 742.421387,74.327744 751.581360,69.028175 
	C759.811707,64.266449 768.307739,59.947346 776.804932,55.667992 
	C786.118896,50.977318 795.400574,46.156361 805.002502,42.120586 
	C816.389954,37.334332 828.030090,33.113560 839.696411,29.036037 
	C852.573975,24.535120 865.387451,19.542383 878.622498,16.447325 
	C897.029846,12.142696 915.803406,9.403535 934.420166,5.994641 
	C942.062134,4.595324 949.704224,3.196941 957.173096,1.399075 
	C988.020935,1.000000 1019.041809,1.000000 1050.531372,1.000012 
	C1051.769287,1.663508 1052.459351,2.770550 1053.319946,2.924546 
	C1068.431274,5.628626 1083.531860,8.419231 1098.699219,10.776649 
	C1116.672974,13.570257 1133.868652,19.080761 1150.930542,25.089510 
	C1159.795044,28.211302 1168.639404,31.449860 1177.278442,35.137897 
	C1189.796509,40.481918 1202.254639,46.005779 1214.479248,51.982967 
	C1222.589478,55.948376 1230.292603,60.761921 1238.094360,65.338440 
	C1246.942139,70.528610 1255.816284,75.691002 1264.451416,81.220718 
	C1270.706909,85.226562 1276.634399,89.752823 1282.631226,94.152023 
	C1290.379150,99.835831 1298.219604,105.414040 1305.703125,111.431877 
	C1312.133301,116.602570 1318.263306,122.173180 1324.267578,127.840820 
	C1334.536621,137.534149 1344.704224,147.340271 1354.718872,157.295715 
	C1361.121582,163.660690 1367.375488,170.201401 1373.328491,176.985825 
	C1380.279663,184.907745 1387.053833,193.008835 1393.488037,201.353592 
	C1399.088379,208.617065 1404.127197,216.314865 1409.380859,223.844025 
	C1415.493530,232.604233 1421.853271,241.209396 1427.583008,250.214523 
	C1433.483887,259.488953 1438.740112,269.172760 1444.306763,278.660858 
	C1448.709595,286.165131 1453.485596,293.472595 1457.491577,301.181549 
	C1461.752319,309.380249 1465.289551,317.954285 1469.166504,326.353394 
	C1471.278931,330.929504 1473.393311,335.505798 1475.592285,340.040497 
	C1478.283691,345.590729 1481.319702,350.988403 1483.741455,356.651001 
	C1486.720825,363.617920 1489.354614,370.742157 1491.899048,377.883514 
	C1497.451782,393.468292 1503.047119,409.042664 1508.252808,424.744690 
	C1512.040771,436.170593 1515.502441,447.721771 1518.620850,459.348175 
	C1522.330566,473.179596 1525.850464,487.080017 1528.845093,501.080505 
	C1532.531250,518.313477 1536.050659,535.608215 1538.781738,553.011292 
	C1541.145630,568.074707 1542.237305,583.335022 1544.025757,598.492371 
	C1545.177856,608.255554 1546.653320,617.980408 1547.824707,627.741516 
	C1548.409180,632.611572 1548.636475,637.524475 1549.061890,642.877686 
	C1547.360840,642.877686 1545.995117,643.191040 1544.844238,642.826477 
	C1537.721069,640.570435 1530.656982,638.128479 1523.552856,635.811157 
	C1509.496582,631.225952 1495.446045,626.622070 1481.356323,622.141541 
	C1471.912354,619.138245 1462.453857,616.159424 1452.912964,613.487061 
	C1442.103882,610.459351 1431.228760,607.647522 1420.314575,605.023865 
	C1415.648560,603.902222 1416.488403,599.862854 1416.192749,597.195801 
	C1414.207275,579.285828 1412.558472,561.368408 1408.149170,543.799316 
	C1405.335571,532.587830 1403.796875,521.051941 1400.880127,509.871948 
	C1397.395874,496.516754 1393.280762,483.311584 1389.019043,470.177673 
	C1383.854126,454.260406 1378.472656,438.404480 1372.738037,422.685028 
	C1370.064209,415.355835 1366.281250,408.435822 1363.104370,401.284454 
	C1359.552856,393.289825 1356.290894,385.162537 1352.585815,377.241333 
	C1348.788574,369.123260 1344.708496,361.132202 1340.567505,353.181732 
	C1336.079468,344.564667 1331.564087,335.951508 1326.711304,327.537994 
	C1322.811401,320.776398 1318.548950,314.207916 1314.165771,307.744812 
	C1306.878296,296.999420 1299.691162,286.160004 1291.852905,275.821808 
	C1284.339966,265.912354 1276.117676,256.534821 1268.082153,247.029205 
	C1262.761841,240.735489 1257.437988,234.417694 1251.706909,228.507187 
	C1247.517212,224.186340 1242.582153,220.598236 1238.127563,216.521408 
	C1234.258179,212.980103 1230.771362,209.008621 1226.801270,205.592377 
	C1221.300049,200.858414 1215.592285,196.350708 1209.810181,191.960495 
	C1203.991943,187.542862 1198.169800,183.077911 1191.999146,179.189087 
	C1182.481934,173.191315 1172.716309,167.579697 1162.953125,161.983978 
	C1159.003784,159.720490 1154.840210,157.802155 1150.675171,155.949600 
	C1140.867920,151.587601 1131.242676,146.633560 1121.098389,143.257584 
	C1107.839966,138.845337 1094.334961,134.681656 1080.609131,132.274734 
	C1055.537476,127.878273 1030.149170,125.404892 1004.641479,127.132530 
	C992.897583,127.927940 981.237671,130.058243 969.562134,131.739349 
	C958.075867,133.393188 946.600220,135.139053 935.158936,137.074921 
	C931.810547,137.641449 928.609009,139.042709 925.316772,139.979324 
	C912.326843,143.674881 899.226501,147.019043 886.361267,151.104843 
	C874.152649,154.982101 862.066345,159.318680 850.152893,164.026840 
	C840.978577,167.652496 832.128296,172.108887 823.184875,176.304626 
	C815.451111,179.932892 807.658386,183.469940 800.132690,187.497681 
	C792.845093,191.398056 785.645081,195.547562 778.800903,200.171280 
	C768.459534,207.157639 758.170654,214.285355 748.400635,222.035355 
	C739.428772,229.152237 731.368713,237.407043 722.555481,244.738007 
	C709.478394,255.615723 699.421570,269.199036 688.850220,282.234070 
	C678.921753,294.476349 670.190430,307.699951 661.113770,320.619202 
	C654.813904,329.586090 648.517883,338.582184 642.777710,347.908386 
	C637.150208,357.051544 632.156433,366.589905 627.017029,376.026917 
	C622.205444,384.861847 617.170288,393.607391 612.950378,402.724121 
	C607.239380,415.062164 602.214539,427.717773 596.891479,440.235535 
	C594.082825,446.840210 590.941528,453.325165 588.525330,460.070129 
	C584.429260,471.504639 580.758301,483.092316 576.966125,494.634491 
	C574.070312,503.448273 571.009094,512.219421 568.488770,521.141541 
	C566.015930,529.895325 564.134766,538.816223 561.991028,547.663025 
	C561.146423,551.148376 560.130920,554.601196 559.472290,558.121033 
	C556.260864,575.286011 552.859497,592.422668 550.079468,609.658752 
	C547.680603,624.532166 545.830078,639.503174 544.115295,654.474365 
	C543.046692,663.803467 542.395508,673.202820 542.055786,682.588623 
	C541.215881,705.792053 540.520813,729.002930 540.048157,752.216492 
	C539.762634,766.239746 539.743042,780.279907 540.078735,794.301147 
	C540.399292,807.685791 541.043579,821.078674 542.095642,834.424561 
	C542.893677,844.546387 544.650696,854.589294 545.803040,864.687561 
	C546.679382,872.367310 546.927551,880.131104 548.069153,887.765686 
	C550.535522,904.260193 553.021545,920.768555 556.202393,937.134644 
	C559.310242,953.125366 563.161133,968.977417 566.931885,984.831787 
	C569.865356,997.166138 572.935974,1009.478821 576.392029,1021.674622 
	C579.487915,1032.599609 583.038147,1043.404297 586.665771,1054.168335 
	C592.312805,1070.924194 597.980225,1087.679565 604.060303,1104.280884 
	C607.587036,1113.910278 611.930786,1123.240723 615.919250,1132.700562 
	C619.743774,1141.771606 623.200684,1151.022583 627.502625,1159.861816 
	C634.911682,1175.084961 642.792725,1190.080200 650.587769,1205.113037 
	C656.113831,1215.769897 661.687378,1226.407227 667.507507,1236.904785 
	C670.680054,1242.627319 674.410400,1248.040527 677.796631,1253.445557 
	C690.380493,1251.298828 703.134033,1252.061890 715.999756,1252.702393 
	C727.298706,1253.264893 738.006653,1256.120239 748.560608,1259.290894 
	C757.007263,1261.828613 765.190613,1265.915039 772.766785,1270.508301 
	C782.309021,1276.293701 791.598145,1282.726318 800.082825,1289.952637 
	C806.699280,1295.587769 812.617310,1302.376709 817.591492,1309.525513 
	C824.348328,1319.236450 830.868835,1329.348267 835.697937,1340.093872 
	C840.051086,1349.780273 842.382202,1360.456421 844.909973,1370.864746 
	C849.820129,1391.082642 848.437683,1411.228149 843.969299,1431.448608 
	C840.681335,1446.327393 835.308594,1460.375610 827.627991,1473.269653 
	C819.420349,1487.048584 809.550842,1499.838623 796.831726,1509.997925 
	C790.564636,1515.003784 784.542114,1520.568115 777.601990,1524.429688 
	C759.934204,1534.260620 741.245056,1541.732788 720.923218,1543.965210 
	C702.141418,1546.028809 683.577332,1545.673828 665.011169,1540.737183 
	C650.674194,1536.924927 637.095642,1531.671997 624.592529,1524.001831 
	C614.095947,1517.562622 603.822021,1510.587280 595.880432,1500.795776 
	C589.744629,1493.230713 582.626038,1486.369019 577.212952,1478.339478 
	C572.451355,1471.276245 569.038269,1463.195190 565.782776,1455.254883 
	C562.347290,1446.875488 559.306824,1438.259766 557.030396,1429.503662 
	C555.273315,1422.745483 554.573303,1415.637939 554.089111,1408.638184 
	C552.978455,1392.582520 553.155518,1376.446655 557.201721,1360.824585 
	C559.828125,1350.684082 563.046875,1340.505981 569.536499,1331.817139 
	C571.354431,1329.383179 571.340820,1326.870850 569.503601,1323.678223 
	C561.067566,1309.017334 553.115540,1294.077026 545.056458,1279.200684 
	C540.576721,1270.931396 536.063904,1262.673096 531.864441,1254.260742 
	C527.439392,1245.396606 523.332642,1236.372070 519.156128,1227.385498 
	C515.256104,1218.994019 511.312073,1210.618652 507.634003,1202.129272 
	C503.460815,1192.497070 499.538788,1182.755493 495.553345,1173.042603 
	C493.649506,1168.402832 491.811340,1163.735107 490.012909,1159.053345 
	C483.962982,1143.303955 477.846039,1127.579102 471.949524,1111.772217 
	C468.260437,1101.882812 464.624268,1091.955078 461.491669,1081.880615 
	C456.182251,1064.805298 451.110931,1047.650513 446.281128,1030.433350 
	C442.676971,1017.585205 439.331268,1004.649597 436.376648,991.638062 
	C432.657349,975.258911 429.030365,958.836731 426.133179,942.298340 
	C422.380829,920.878113 419.218231,899.348999 416.152527,877.816833 
	C414.947388,869.352600 414.565918,860.761230 414.026886,852.214050 
	C412.935638,834.909790 411.858429,817.602600 411.034882,800.284241 
	C410.459869,788.192017 410.315979,776.079285 410.216614,763.242432 
	C412.842682,755.586975 413.202332,748.720764 409.886963,741.955872 
z"/>
<path fill="#764ABC" opacity="1.000000" stroke="none" 
	d="
M1444.468628,1946.000000 
	C1443.555542,1945.353394 1443.166382,1944.190796 1442.658447,1944.136230 
	C1432.196289,1943.015137 1421.696655,1942.216064 1411.255249,1940.938110 
	C1402.817749,1939.905273 1394.414185,1938.503052 1386.054321,1936.949585 
	C1370.652954,1934.087524 1355.205200,1931.383667 1339.944214,1927.884033 
	C1325.524902,1924.577271 1311.297974,1920.414917 1297.028564,1916.475952 
	C1284.495483,1913.016235 1271.894653,1909.727295 1259.556763,1905.656250 
	C1248.005859,1901.845093 1236.765625,1897.093384 1225.380127,1892.778198 
	C1214.916870,1888.812622 1204.343628,1885.116577 1194.002441,1880.855957 
	C1185.020386,1877.155396 1176.245239,1872.935303 1167.475830,1868.741455 
	C1162.610107,1866.414551 1162.364136,1864.455933 1166.476074,1861.247070 
	C1175.996826,1853.817871 1185.711304,1846.637085 1195.222778,1839.196289 
	C1202.510376,1833.495483 1209.577759,1827.514282 1216.796021,1821.723877 
	C1228.029175,1812.712891 1239.434937,1803.912109 1250.526367,1794.730835 
	C1259.234863,1787.522217 1267.695068,1779.999512 1276.009888,1772.338745 
	C1278.382935,1770.152100 1280.010498,1770.099731 1282.874390,1771.296753 
	C1298.011475,1777.623413 1313.146973,1783.998657 1328.546387,1789.637451 
	C1339.063354,1793.488525 1349.966431,1796.325195 1360.778687,1799.319458 
	C1374.105225,1803.009766 1387.415161,1806.861816 1400.918457,1809.783691 
	C1415.905029,1813.026489 1431.047241,1815.669922 1446.222046,1817.888550 
	C1460.988770,1820.047607 1475.923340,1821.040771 1490.710693,1823.079346 
	C1514.040527,1826.295654 1537.474609,1825.104004 1560.838257,1824.741699 
	C1573.540771,1824.544922 1586.215332,1821.823486 1598.878784,1820.069214 
	C1610.219238,1818.498291 1621.535156,1816.743286 1632.842773,1814.949097 
	C1635.240967,1814.568481 1637.566650,1813.700928 1639.908325,1812.999756 
	C1655.488037,1808.334473 1671.506958,1804.754150 1686.526489,1798.697021 
	C1705.061279,1791.221924 1723.085571,1782.282837 1740.709961,1772.820557 
	C1752.155518,1766.675659 1762.742554,1758.806274 1773.249268,1751.077637 
	C1781.958862,1744.671021 1789.879883,1737.203491 1798.349609,1730.456299 
	C1807.487671,1723.176636 1815.969116,1715.337158 1823.471680,1706.303711 
	C1831.087891,1697.133545 1839.874512,1688.927246 1847.374878,1679.671753 
	C1853.320068,1672.335205 1858.212158,1664.126465 1863.364380,1656.170654 
	C1871.069336,1644.272461 1879.198364,1632.589722 1886.017944,1620.194336 
	C1892.472656,1608.462524 1897.626953,1595.998535 1903.052979,1583.723877 
	C1906.263794,1576.460205 1909.279663,1569.061890 1911.677002,1561.500122 
	C1914.223633,1553.467529 1915.965332,1545.177490 1918.001465,1536.985718 
	C1919.417603,1531.287231 1921.057373,1525.618408 1922.027954,1519.840698 
	C1923.599365,1510.485352 1925.208008,1501.087646 1925.889404,1491.642212 
	C1926.984253,1476.466309 1928.181396,1461.212646 1927.748779,1446.037109 
	C1927.362305,1432.480835 1925.012085,1418.960938 1923.186646,1405.471313 
	C1921.719849,1394.631958 1919.845093,1383.843628 1917.932983,1373.071411 
	C1917.280884,1369.398193 1916.048096,1365.817017 1914.935913,1362.238770 
	C1911.328613,1350.633789 1907.977051,1338.935669 1903.926147,1327.485840 
	C1898.578857,1312.370972 1892.903076,1297.360596 1886.904297,1282.492554 
	C1883.090332,1273.039795 1878.610352,1263.840210 1874.109741,1254.683960 
	C1868.644165,1243.564819 1863.230347,1232.388794 1857.085083,1221.642944 
	C1849.866089,1209.019409 1842.034058,1196.736450 1834.191650,1184.482666 
	C1826.992310,1173.233887 1819.629150,1162.077148 1811.948975,1151.153564 
	C1806.812012,1143.847412 1801.085449,1136.946289 1795.459106,1129.996338 
	C1788.030884,1120.820557 1780.645630,1111.596191 1772.856689,1102.731079 
	C1767.094360,1096.172485 1760.686646,1090.183594 1754.625610,1083.884033 
	C1751.022339,1080.138672 1747.596313,1076.222290 1743.976929,1072.493286 
	C1739.779663,1068.169067 1735.566040,1063.849976 1731.165039,1059.736572 
	C1724.025757,1053.063721 1716.834351,1046.438354 1709.466064,1040.021240 
	C1702.749512,1034.171875 1695.753052,1028.644409 1688.908569,1022.940979 
	C1681.643799,1016.887207 1674.643677,1010.487671 1667.110596,1004.790955 
	C1656.807373,996.999451 1646.189087,989.614685 1635.559937,982.266663 
	C1624.596680,974.687622 1613.606079,967.128662 1602.350342,959.998352 
	C1593.269287,954.245667 1583.718018,949.240845 1574.483887,943.722595 
	C1567.054321,939.282715 1559.911987,934.353699 1552.411133,930.043945 
	C1545.500488,926.073242 1538.285767,922.630615 1531.197998,918.969177 
	C1523.100586,914.786377 1515.064697,910.476318 1506.874634,906.483093 
	C1497.970215,902.141602 1488.894043,898.153564 1479.941284,893.909302 
	C1474.243530,891.208191 1468.726318,888.111816 1462.963379,885.565918 
	C1453.878052,881.552429 1444.692139,877.758362 1435.476685,874.050354 
	C1428.094116,871.079712 1420.648193,868.252686 1413.152222,865.580872 
	C1402.018799,861.612427 1390.831543,857.792603 1379.638062,853.995300 
	C1372.247681,851.488098 1364.847412,848.995300 1357.377319,846.741943 
	C1348.212891,843.977417 1338.973389,841.460938 1329.762085,838.852661 
	C1318.964355,835.795166 1308.233765,832.463135 1297.344360,829.775635 
	C1281.839478,825.949036 1266.324585,821.993896 1250.617188,819.199036 
	C1230.167969,815.560425 1209.554443,812.789307 1188.956543,810.061279 
	C1175.768433,808.314575 1162.499634,807.068787 1149.232178,806.059143 
	C1136.216553,805.068542 1123.161255,804.531616 1110.114502,804.033936 
	C1097.016113,803.534302 1083.907104,803.299805 1070.801758,803.001709 
	C1054.864624,802.639221 1038.927002,802.263000 1022.987549,802.108582 
	C1021.423828,802.093445 1019.132324,803.173035 1018.390930,804.448975 
	C1013.922363,812.139221 1010.749878,820.768982 1005.356873,827.692566 
	C996.898376,838.551575 987.340393,848.624329 977.598389,858.381348 
	C973.264404,862.722046 967.574097,865.899780 962.099731,868.868408 
	C952.411621,874.122131 942.732788,879.661987 932.453064,883.471008 
	C924.155945,886.545349 915.027283,887.561340 906.178711,888.905273 
	C898.711182,890.039490 891.045959,891.312805 883.592773,890.780884 
	C870.745544,889.863953 857.629333,890.040588 845.336182,885.009949 
	C835.294189,880.900513 824.815979,877.697571 815.161377,872.840088 
	C802.375549,866.407288 791.523804,857.191284 781.265564,847.071533 
	C769.848206,835.808289 760.998047,822.871094 753.663635,808.887634 
	C749.918091,801.746460 747.523865,793.831299 745.070435,786.091248 
	C740.002930,770.104370 737.981079,753.567688 739.181702,736.914978 
	C740.070251,724.590881 740.940430,712.106201 745.771362,700.367432 
	C748.675964,693.309509 750.286377,685.633484 753.812988,678.938171 
	C758.487366,670.063965 763.985901,661.517639 770.000122,653.481262 
	C778.213745,642.506042 788.014526,633.005859 799.194153,624.871704 
	C811.857422,615.658081 825.642395,608.850281 840.446228,604.041992 
	C858.792236,598.083374 877.721436,595.374878 896.881287,597.222168 
	C910.136597,598.500183 923.152283,601.531189 935.893738,606.133057 
	C950.295044,611.334473 963.250671,618.736877 975.239136,627.909119 
	C983.949402,634.573242 992.238159,641.835571 998.197144,651.326538 
	C1003.069702,659.087036 1008.018311,666.809204 1013.269287,674.313110 
	C1014.106384,675.509399 1016.709412,675.923645 1018.499207,675.931152 
	C1042.830688,676.033264 1067.163452,675.887939 1091.494385,676.044250 
	C1104.766724,676.129578 1118.070557,676.185913 1131.297974,677.128784 
	C1147.187256,678.261414 1163.008667,680.340515 1178.862549,681.978027 
	C1192.097778,683.345093 1205.374268,684.383057 1218.564697,686.090942 
	C1230.716309,687.664307 1242.773804,689.959351 1254.879761,691.893005 
	C1267.796387,693.956360 1280.780518,695.655762 1293.625000,698.094421 
	C1305.640625,700.375732 1317.507446,703.436646 1329.447876,706.118042 
	C1338.331909,708.113037 1347.246948,709.973511 1356.111450,712.050781 
	C1359.588013,712.865417 1362.964966,714.105713 1366.386230,715.155518 
	C1384.411133,720.686157 1402.485962,726.060852 1420.444702,731.798584 
	C1435.004517,736.450500 1449.486328,741.366577 1463.883911,746.498901 
	C1472.503418,749.571350 1480.887939,753.300354 1489.389282,756.706848 
	C1502.618530,762.007751 1515.981201,766.999451 1529.051880,772.665405 
	C1539.052002,777.000305 1548.703735,782.143188 1558.481567,786.984924 
	C1569.201416,792.293152 1579.968018,797.516174 1590.562988,803.065125 
	C1598.339233,807.137878 1605.891235,811.641785 1613.507080,816.016418 
	C1620.823120,820.218933 1628.161865,824.388672 1635.365479,828.778198 
	C1645.113647,834.718201 1654.819580,840.735107 1664.402344,846.937439 
	C1675.516113,854.130737 1686.573242,861.420959 1697.465820,868.943054 
	C1703.405884,873.045166 1708.865723,877.835938 1714.701660,882.097534 
	C1722.243530,887.604919 1730.127686,892.656433 1737.525024,898.345459 
	C1744.575928,903.768005 1751.202515,909.743530 1757.994385,915.501160 
	C1768.996216,924.827881 1780.131226,934.005432 1790.915649,943.577515 
	C1797.322632,949.264404 1803.112305,955.641907 1809.282471,961.602234 
	C1813.259644,965.444153 1817.567749,968.948975 1821.469971,972.861694 
	C1827.445435,978.853333 1833.211426,985.054565 1839.043457,991.188660 
	C1844.341309,996.761108 1849.633911,1002.339111 1854.882568,1007.957764 
	C1861.024658,1014.532776 1867.222534,1021.060486 1873.200806,1027.782471 
	C1879.110107,1034.427002 1884.911011,1041.178467 1890.518311,1048.078857 
	C1900.058105,1059.819092 1909.644531,1071.534424 1918.769653,1083.594482 
	C1927.192261,1094.726440 1935.288208,1106.127686 1943.048584,1117.731079 
	C1948.783936,1126.306519 1953.697754,1135.428223 1959.076416,1144.246338 
	C1962.138794,1149.267212 1965.641846,1154.031738 1968.508057,1159.156738 
	C1971.901489,1165.224365 1974.832031,1171.551392 1977.946777,1177.774170 
	C1982.897095,1187.664551 1988.091919,1197.443237 1992.709839,1207.486938 
	C1998.276611,1219.594116 2003.761841,1231.770630 2008.523315,1244.207642 
	C2013.728760,1257.804443 2018.343018,1271.646851 2022.702148,1285.542847 
	C2026.792114,1298.580688 2030.747559,1311.706055 2033.793457,1325.014648 
	C2037.687622,1342.030396 2040.917236,1359.216431 2043.833984,1376.430542 
	C2045.504639,1386.290405 2045.960938,1396.354370 2047.041748,1406.317993 
	C2047.154175,1407.354004 2047.796631,1408.332520 2048.596680,1409.168823 
	C2049.000000,1443.687622 2049.000000,1478.375122 2048.596191,1513.364990 
	C2047.804565,1514.343506 2047.164673,1514.985474 2047.066895,1515.701416 
	C2045.337158,1528.360596 2044.248535,1541.138794 2041.852051,1553.667603 
	C2038.764160,1569.810669 2034.659302,1585.760132 2030.938965,1601.780640 
	C2030.461182,1603.838501 2029.685913,1605.829712 2029.007568,1607.838013 
	C2025.322998,1618.748291 2021.864624,1629.743408 2017.843018,1640.528442 
	C2015.406006,1647.064087 2012.145142,1653.298096 2009.156372,1659.621216 
	C2005.139282,1668.120239 2001.318237,1676.731079 1996.865601,1684.998901 
	C1993.163330,1691.873535 1988.921509,1698.495850 1984.472534,1704.921021 
	C1976.933472,1715.808594 1969.333740,1726.678467 1961.212769,1737.131226 
	C1954.073242,1746.320312 1946.353271,1755.078979 1938.570435,1763.741089 
	C1933.075439,1769.856934 1927.112915,1775.560669 1921.233521,1781.320312 
	C1917.371826,1785.103271 1913.273071,1788.643433 1909.304688,1792.318604 
	C1904.263916,1796.986694 1899.406006,1801.867065 1894.181519,1806.318115 
	C1887.325439,1812.159180 1880.282959,1817.793213 1873.146973,1823.290894 
	C1865.451660,1829.219238 1857.711304,1835.113770 1849.706299,1840.609009 
	C1840.833252,1846.699951 1831.723999,1852.461304 1822.556396,1858.104370 
	C1815.223877,1862.618042 1807.718628,1866.864746 1800.164673,1871.000977 
	C1792.710083,1875.082397 1785.105103,1878.889404 1777.552979,1882.791992 
	C1772.237549,1885.538696 1767.013916,1888.501343 1761.547485,1890.909668 
	C1752.527222,1894.883789 1743.354370,1898.512939 1734.226440,1902.240112 
	C1727.014648,1905.184937 1719.907715,1908.472046 1712.515259,1910.870850 
	C1700.010742,1914.928711 1687.327637,1918.439453 1674.700073,1922.113770 
	C1665.474487,1924.798218 1656.311890,1927.794189 1646.951782,1929.897461 
	C1634.702393,1932.650024 1622.295776,1934.713135 1609.938110,1936.970337 
	C1602.059692,1938.409424 1594.181030,1939.931274 1586.241699,1940.932251 
	C1575.970825,1942.227295 1565.636108,1943.014404 1555.341797,1944.136353 
	C1554.832886,1944.191895 1554.444580,1945.353516 1554.000000,1946.000000 
	C1517.645752,1946.000000 1481.291504,1946.000000 1444.468628,1946.000000 
z"/>
<path fill="#764ABC" opacity="1.000000" stroke="none" 
	d="
M1.000006,1387.468628 
	C1.662976,1386.303223 2.806033,1385.675781 2.918362,1384.899292 
	C5.424037,1367.579956 7.202096,1350.207764 10.575881,1332.949463 
	C14.622303,1312.250244 19.107662,1291.764648 25.692274,1271.754639 
	C30.359653,1257.570923 35.050915,1243.380737 40.299610,1229.406738 
	C45.231266,1216.276733 50.479286,1203.227295 56.384598,1190.512451 
	C61.689915,1179.089478 67.965027,1168.107666 74.020065,1157.044800 
	C79.786278,1146.509644 85.559250,1135.961548 91.815910,1125.716309 
	C97.394653,1116.580811 103.459862,1107.725464 109.637955,1098.977783 
	C116.178978,1089.716309 122.803604,1080.482666 129.931473,1071.673584 
	C142.997421,1055.525879 156.237335,1039.506104 169.842239,1023.812256 
	C177.776688,1014.659668 186.496368,1006.180725 194.979828,997.513245 
	C202.444534,989.886780 209.893097,982.228333 217.683060,974.941345 
	C224.169022,968.874084 231.124146,963.306580 237.900589,957.552063 
	C246.633362,950.136292 255.308029,942.648315 264.171051,935.390930 
	C271.804535,929.140259 279.622223,923.111084 287.444519,917.095886 
	C292.394165,913.289551 297.487183,909.668457 302.554504,906.017761 
	C303.293152,905.485535 304.247131,905.252197 305.591064,904.667664 
	C306.773407,910.931824 307.670319,916.844910 309.033173,922.648499 
	C311.451935,932.948914 314.161194,943.181030 316.735016,953.445190 
	C321.170746,971.134460 325.497498,988.851746 330.065002,1006.506836 
	C332.506439,1015.943909 335.002686,1025.397827 338.189026,1034.596436 
	C339.514038,1038.421753 338.133484,1040.645508 335.792511,1042.473267 
	C330.341766,1046.729004 324.356934,1050.311279 318.993866,1054.665771 
	C312.559998,1059.889404 306.465454,1065.543213 300.370453,1071.169556 
	C289.941467,1080.796631 279.223450,1090.157593 269.369537,1100.348267 
	C258.070038,1112.033936 247.512238,1124.442505 236.762589,1136.651855 
	C230.268509,1144.027954 223.747650,1151.410034 217.742279,1159.178589 
	C211.839310,1166.814453 206.489410,1174.885498 201.048889,1182.869141 
	C194.923065,1191.858521 188.642517,1200.767944 183.027084,1210.072876 
	C177.212799,1219.707275 172.048874,1229.738647 166.724838,1239.663086 
	C162.202408,1248.093506 157.573120,1256.485474 153.511993,1265.138916 
	C149.361893,1273.982056 145.670868,1283.054077 142.108017,1292.154785 
	C139.266968,1299.411865 136.689835,1306.791992 134.409439,1314.244141 
	C131.081100,1325.120972 127.709282,1336.014160 125.118736,1347.078979 
	C122.219025,1359.464111 119.968521,1372.014160 117.836281,1384.560547 
	C116.765480,1390.861206 116.532944,1397.308960 116.011955,1403.697510 
	C115.302086,1412.401978 114.166855,1421.112915 114.153809,1429.822388 
	C114.139000,1439.710327 115.108490,1449.603394 115.759972,1459.486938 
	C116.008331,1463.254639 116.495636,1467.010742 116.988640,1470.757080 
	C118.291443,1480.656860 119.249077,1490.625610 121.102982,1500.423218 
	C123.310608,1512.090210 125.739647,1523.776855 129.120636,1535.143311 
	C132.675507,1547.094116 137.630920,1558.620972 141.685410,1570.432373 
	C148.579529,1590.515747 158.380371,1609.216675 168.964706,1627.490601 
	C176.241196,1640.053467 183.866470,1652.492920 192.361160,1664.246582 
	C199.151993,1673.642700 207.336975,1682.059937 215.183411,1690.655884 
	C222.464798,1698.633057 229.822281,1706.586548 237.700729,1713.958008 
	C243.856781,1719.717773 250.656372,1724.858765 257.536377,1729.760376 
	C269.141022,1738.027832 280.801849,1746.264771 292.896545,1753.778076 
	C300.116486,1758.262939 308.214203,1761.331909 315.905304,1765.062256 
	C319.681641,1766.893799 323.344238,1768.988159 327.208344,1770.604858 
	C337.867523,1775.064453 348.397461,1779.979858 359.363922,1783.521606 
	C374.050446,1788.264893 388.998322,1792.312866 404.021118,1795.868774 
	C418.774750,1799.360962 433.726746,1802.067139 448.665649,1804.698364 
	C454.483307,1805.723022 460.511841,1805.500366 466.429138,1806.018799 
	C480.849609,1807.282227 495.237427,1809.172241 509.682892,1809.824585 
	C524.485840,1810.493164 539.364258,1810.506836 554.168274,1809.860474 
	C570.276733,1809.156982 586.359985,1807.588135 602.412170,1805.976929 
	C615.782166,1804.634888 629.117249,1802.866455 642.418457,1800.944946 
	C651.953125,1799.567749 661.458862,1797.875122 670.883972,1795.881226 
	C687.290283,1792.410522 703.701721,1788.905029 719.958862,1784.810181 
	C729.083130,1782.512085 737.883240,1778.943237 746.865417,1776.058960 
	C753.510071,1773.925415 760.265381,1772.129028 766.875061,1769.897095 
	C773.624939,1767.617554 780.316956,1765.138062 786.927185,1762.479736 
	C797.026794,1758.418335 807.068604,1754.207275 817.067444,1749.903076 
	C822.565979,1747.536133 827.932312,1744.860596 833.347778,1742.302124 
	C845.590210,1736.519043 857.957214,1730.980469 870.025940,1724.854492 
	C880.940186,1719.314331 891.570251,1713.205811 902.240417,1707.196411 
	C909.077820,1703.345825 915.725525,1699.159790 922.522217,1695.234863 
	C929.775330,1691.046509 937.196777,1687.143677 944.376343,1682.835449 
	C954.075684,1677.015259 963.730408,1671.104614 973.192810,1664.909912 
	C985.030396,1657.160156 996.666870,1649.102417 1008.364990,1641.140747 
	C1018.894043,1633.974854 1029.571167,1627.007446 1039.839722,1619.483887 
	C1047.637939,1613.770264 1054.873901,1607.291992 1062.403564,1601.207764 
	C1069.025391,1595.857300 1075.791382,1590.682617 1082.337646,1585.242554 
	C1087.704468,1580.782715 1092.825317,1576.027710 1098.084839,1571.437622 
	C1104.783813,1565.591187 1111.696533,1559.975464 1118.182495,1553.902832 
	C1126.438965,1546.172852 1134.413696,1538.138184 1142.411987,1530.137207 
	C1151.078491,1521.467529 1159.758667,1512.805054 1168.189087,1503.908325 
	C1173.379639,1498.430420 1178.075439,1492.486328 1183.064453,1486.814087 
	C1187.176270,1482.139038 1191.570312,1477.702148 1195.520020,1472.897095 
	C1201.175659,1466.016724 1206.554077,1458.907837 1212.025391,1451.876831 
	C1218.246338,1443.882202 1224.637085,1436.009399 1230.588135,1427.817993 
	C1236.390503,1419.831177 1241.807373,1411.559448 1247.254028,1403.320557 
	C1253.559692,1393.782471 1260.023071,1384.327515 1265.854736,1374.502075 
	C1273.273560,1362.002197 1280.130859,1349.168701 1287.222534,1336.474609 
	C1289.379395,1332.613892 1291.335815,1328.628662 1293.688721,1324.892334 
	C1299.058105,1316.365845 1298.920654,1316.589966 1292.539917,1308.827637 
	C1288.460571,1303.864990 1285.062256,1298.332764 1281.472534,1292.979370 
	C1270.055176,1275.952515 1262.975342,1257.238281 1260.008057,1236.975952 
	C1258.892700,1229.358887 1256.939087,1221.666504 1257.249756,1214.085571 
	C1257.711060,1202.829224 1259.603516,1191.604126 1261.328247,1180.433838 
	C1263.666504,1165.291016 1270.039307,1151.452515 1277.522705,1138.392578 
	C1286.733032,1122.318970 1298.689453,1108.123169 1313.810913,1097.194214 
	C1323.073242,1090.499878 1332.752808,1084.006958 1343.091553,1079.272217 
	C1356.234131,1073.253174 1370.045898,1068.415161 1384.875122,1067.988159 
	C1394.647095,1067.706665 1404.437622,1066.778564 1414.181274,1067.150635 
	C1424.608521,1067.548828 1434.816406,1069.484741 1445.071045,1072.156006 
	C1458.382568,1075.623779 1470.268433,1081.717407 1481.984009,1088.250977 
	C1488.324829,1091.786987 1493.791870,1097.003296 1499.332275,1101.830078 
	C1505.220947,1106.960205 1511.129639,1112.170532 1516.308228,1117.987915 
	C1523.533691,1126.104248 1529.325806,1135.270630 1534.564575,1144.868408 
	C1541.116821,1156.872314 1545.679321,1169.573242 1548.208008,1182.825195 
	C1551.050537,1197.722656 1551.699585,1212.802734 1550.350464,1228.111938 
	C1549.334106,1239.644287 1546.730469,1250.693604 1543.772461,1261.687744 
	C1542.107666,1267.875366 1539.080444,1273.824829 1535.900269,1279.447754 
	C1530.511841,1288.975098 1525.000610,1298.508789 1518.608765,1307.367065 
	C1514.186401,1313.495850 1508.467651,1318.792847 1502.824829,1323.906250 
	C1497.934326,1328.337891 1492.433350,1332.126221 1487.029053,1335.954346 
	C1477.461670,1342.730835 1467.215210,1348.453979 1455.994263,1351.803467 
	C1444.941040,1355.103027 1433.558350,1357.294189 1422.339478,1360.050415 
	C1421.392334,1360.283081 1420.178345,1360.906372 1419.786865,1361.695068 
	C1416.028442,1369.264404 1412.497803,1376.946777 1408.742065,1384.517578 
	C1406.280884,1389.478882 1403.603516,1394.335327 1400.941772,1399.194214 
	C1393.568115,1412.654785 1386.390747,1426.230957 1378.674072,1439.492798 
	C1372.808228,1449.573608 1366.265625,1459.262329 1359.969238,1469.090332 
	C1352.531738,1480.699585 1345.377563,1492.511353 1337.464844,1503.789185 
	C1329.909546,1514.557373 1321.443970,1524.682373 1313.555664,1535.222778 
	C1307.762817,1542.962891 1302.476318,1551.088135 1296.556763,1558.725830 
	C1291.129639,1565.728271 1285.159180,1572.309570 1279.423828,1579.072876 
	C1272.187134,1587.606445 1265.142334,1596.313232 1257.653076,1604.619141 
	C1249.946167,1613.166382 1241.974487,1621.492432 1233.815063,1629.610229 
	C1218.828979,1644.520020 1203.871094,1659.474854 1188.416260,1673.890625 
	C1177.995361,1683.610840 1166.740234,1692.436646 1155.861328,1701.666016 
	C1146.518188,1709.592041 1137.367920,1717.760620 1127.775391,1725.372314 
	C1120.711914,1730.977417 1113.021851,1735.786621 1105.705933,1741.081787 
	C1099.587280,1745.510010 1093.762573,1750.357544 1087.526001,1754.605835 
	C1079.213989,1760.268066 1070.650024,1765.562622 1062.155884,1770.954590 
	C1052.608154,1777.015503 1043.125610,1783.189941 1033.415527,1788.981201 
	C1023.542969,1794.869019 1013.436523,1800.365845 1003.415161,1806.003174 
	C998.316040,1808.871460 993.269714,1811.853882 988.040100,1814.465698 
	C976.741394,1820.108521 965.333557,1825.532471 953.984070,1831.073975 
	C950.065125,1832.987305 946.259521,1835.147705 942.277527,1836.914062 
	C924.742554,1844.693115 907.261047,1852.607056 889.561768,1859.996948 
	C878.198486,1864.741333 866.526306,1868.760254 854.926331,1872.919434 
	C843.295959,1877.089722 831.673645,1881.320312 819.882141,1884.992310 
	C806.997742,1889.004761 793.919312,1892.392456 780.933105,1896.079346 
	C769.972839,1899.191284 759.127014,1902.783813 748.046387,1905.376953 
	C728.686523,1909.907837 709.173340,1913.780029 689.747925,1918.035767 
	C678.773499,1920.440063 667.929321,1923.537598 656.876221,1925.458008 
	C643.493103,1927.782959 629.954285,1929.218384 616.476868,1930.992798 
	C606.399597,1932.319336 596.328369,1933.718872 586.224365,1934.805298 
	C579.988281,1935.475708 573.697632,1935.901245 567.427979,1935.946533 
	C547.762939,1936.088501 528.079468,1936.496826 508.435547,1935.837402 
	C493.160095,1935.324585 477.908417,1933.602051 462.691223,1931.991455 
	C446.227448,1930.249023 429.793121,1928.177490 413.393707,1925.904785 
	C407.435211,1925.078979 401.611969,1923.270020 395.731537,1921.890015 
	C380.206390,1918.246826 364.620697,1914.836670 349.186707,1910.840698 
	C341.487274,1908.847290 334.073456,1905.756470 326.518951,1903.196167 
	C319.288879,1900.745728 312.004486,1898.449585 304.818848,1895.876587 
	C299.633209,1894.019653 294.497742,1891.983032 289.466461,1889.742188 
	C275.431427,1883.490723 261.239166,1877.532959 247.537384,1870.611084 
	C236.523621,1865.047119 226.077332,1858.341431 215.487473,1851.962646 
	C206.867813,1846.770630 198.173859,1841.647217 189.943176,1835.879395 
	C181.481705,1829.949585 173.464066,1823.372559 165.393799,1816.902100 
	C156.322922,1809.629272 147.148666,1802.449707 138.515427,1794.678589 
	C132.042938,1788.852173 126.219559,1782.277100 120.352997,1775.812378 
	C113.151268,1767.876343 106.010483,1759.868042 99.214050,1751.586792 
	C94.259590,1745.549683 89.750809,1739.126221 85.320595,1732.684448 
	C79.305557,1723.937988 73.200478,1715.220093 67.793213,1706.099243 
	C62.600655,1697.340332 57.969425,1688.215820 53.595348,1679.012573 
	C47.600536,1666.399292 41.487148,1653.786987 36.516647,1640.757568 
	C30.973408,1626.226562 26.270267,1611.340454 21.913414,1596.401367 
	C17.813801,1582.344482 13.943672,1568.148193 11.243511,1553.774414 
	C8.104038,1537.061890 6.386008,1520.084106 3.957886,1503.234863 
	C3.464805,1499.813354 2.556702,1496.451660 1.419968,1493.031250 
	C1.000000,1457.979126 1.000000,1422.958130 1.000006,1387.468628 
z"/>
<path fill="#000000" opacity="1.000000" stroke="none" 
	d="
M1554.468750,1946.000000 
	C1554.444580,1945.353516 1554.832886,1944.191895 1555.341797,1944.136353 
	C1565.636108,1943.014404 1575.970825,1942.227295 1586.241699,1940.932251 
	C1594.181030,1939.931274 1602.059692,1938.409424 1609.938110,1936.970337 
	C1622.295776,1934.713135 1634.702393,1932.650024 1646.951782,1929.897461 
	C1656.311890,1927.794189 1665.474487,1924.798218 1674.700073,1922.113770 
	C1687.327637,1918.439453 1700.010742,1914.928711 1712.515259,1910.870850 
	C1719.907715,1908.472046 1727.014648,1905.184937 1734.226440,1902.240112 
	C1743.354370,1898.512939 1752.527222,1894.883789 1761.547485,1890.909668 
	C1767.013916,1888.501343 1772.237549,1885.538696 1777.552979,1882.791992 
	C1785.105103,1878.889404 1792.710083,1875.082397 1800.164673,1871.000977 
	C1807.718628,1866.864746 1815.223877,1862.618042 1822.556396,1858.104370 
	C1831.723999,1852.461304 1840.833252,1846.699951 1849.706299,1840.609009 
	C1857.711304,1835.113770 1865.451660,1829.219238 1873.146973,1823.290894 
	C1880.282959,1817.793213 1887.325439,1812.159180 1894.181519,1806.318115 
	C1899.406006,1801.867065 1904.263916,1796.986694 1909.304688,1792.318604 
	C1913.273071,1788.643433 1917.371826,1785.103271 1921.233521,1781.320312 
	C1927.112915,1775.560669 1933.075439,1769.856934 1938.570435,1763.741089 
	C1946.353271,1755.078979 1954.073242,1746.320312 1961.212769,1737.131226 
	C1969.333740,1726.678467 1976.933472,1715.808594 1984.472534,1704.921021 
	C1988.921509,1698.495850 1993.163330,1691.873535 1996.865601,1684.998901 
	C2001.318237,1676.731079 2005.139282,1668.120239 2009.156372,1659.621216 
	C2012.145142,1653.298096 2015.406006,1647.064087 2017.843018,1640.528442 
	C2021.864624,1629.743408 2025.322998,1618.748291 2029.007568,1607.838013 
	C2029.685913,1605.829712 2030.461182,1603.838501 2030.938965,1601.780640 
	C2034.659302,1585.760132 2038.764160,1569.810669 2041.852051,1553.667603 
	C2044.248535,1541.138794 2045.337158,1528.360596 2047.066895,1515.701416 
	C2047.164673,1514.985474 2047.804565,1514.343506 2048.596191,1513.833496 
	C2049.000000,1657.932007 2049.000000,1801.864136 2049.000000,1946.000000 
	C1884.312500,1946.000000 1719.624878,1946.000000 1554.468750,1946.000000 
z"/>
<path fill="#764ABC" opacity="1.000000" stroke="none" 
	d="
M409.543274,742.216431 
	C413.202332,748.720764 412.842682,755.586975 410.173157,762.778564 
	C409.661560,756.190979 409.430542,749.333984 409.543274,742.216431 
z"/>
</svg>