<svg version="1.1" id="Layer_1" xmlns="http://www.w3.org/2000/svg" xmlns:xlink="http://www.w3.org/1999/xlink" x="0px" y="0px"
	 width="100%" viewBox="0 0 225 225" enable-background="new 0 0 225 225" xml:space="preserve">
<path fill="#FFFFFF" opacity="1.000000" stroke="none" 
	d="
M156.000000,226.000000 
	C104.000000,226.000000 52.500008,226.000000 1.000007,226.000000 
	C1.000005,151.000000 1.000005,76.000015 1.000002,1.000017 
	C75.999992,1.000011 150.999985,1.000011 225.999969,1.000006 
	C225.999985,75.999985 225.999985,150.999969 226.000000,225.999969 
	C202.833328,226.000000 179.666672,226.000000 156.000000,226.000000 
M123.130074,20.181780 
	C115.445366,20.403709 107.682610,20.000391 100.088516,20.948277 
	C47.860573,27.467310 10.614869,79.911140 21.428329,131.361740 
	C31.902103,181.196136 76.692436,212.959991 126.907700,206.164322 
	C195.571075,196.872070 230.557266,115.941948 190.207794,59.681927 
	C173.894348,36.935802 151.714890,23.967230 123.130074,20.181780 
z"/>
<path fill="#4DB6AC" opacity="1.000000" stroke="none" 
	d="
M123.578735,20.236795 
	C151.714890,23.967230 173.894348,36.935802 190.207794,59.681927 
	C230.557266,115.941948 195.571075,196.872070 126.907700,206.164322 
	C76.692436,212.959991 31.902103,181.196136 21.428329,131.361740 
	C10.614869,79.911140 47.860573,27.467310 100.088516,20.948277 
	C107.682610,20.000391 115.445366,20.403709 123.578735,20.236795 
M113.120308,121.894386 
	C113.207138,122.204262 113.293976,122.514137 113.806938,123.445641 
	C112.963661,125.039803 112.269745,126.736847 111.253723,128.212021 
	C102.280121,141.240845 93.238060,154.222488 84.252533,167.243118 
	C83.332565,168.576202 82.649979,170.073105 81.857239,171.494003 
	C82.311066,171.843628 82.764893,172.193253 83.218719,172.542877 
	C108.341347,149.502274 133.463974,126.461655 158.586609,103.421043 
	C158.370560,102.884460 158.154510,102.347878 157.938461,101.811295 
	C143.651535,101.811295 129.364609,101.811295 113.911087,101.811295 
	C122.527458,84.990372 130.547455,69.333687 138.567459,53.677002 
	C138.011841,53.289654 137.456238,52.902302 136.900620,52.514954 
	C114.355827,74.707481 91.811035,96.900017 69.266235,119.092545 
	C69.582382,119.707497 69.898529,120.322449 70.214668,120.937401 
	C84.474068,120.937401 98.733467,120.937401 113.120308,121.894386 
z"/>
<path fill="#FCFEFD" opacity="1.000000" stroke="none" 
	d="
M112.992867,120.937401 
	C98.733467,120.937401 84.474068,120.937401 70.214668,120.937401 
	C69.898529,120.322449 69.582382,119.707497 69.266235,119.092545 
	C91.811035,96.900017 114.355827,74.707481 136.900620,52.514954 
	C137.456238,52.902302 138.011841,53.289654 138.567459,53.677002 
	C130.547455,69.333687 122.527458,84.990372 113.911087,101.811295 
	C129.364609,101.811295 143.651535,101.811295 157.938461,101.811295 
	C158.154510,102.347878 158.370560,102.884460 158.586609,103.421043 
	C133.463974,126.461655 108.341347,149.502274 83.218719,172.542877 
	C82.764893,172.193253 82.311066,171.843628 81.857239,171.494003 
	C82.649979,170.073105 83.332565,168.576202 84.252533,167.243118 
	C93.238060,154.222488 102.280121,141.240845 111.253723,128.212021 
	C112.269745,126.736847 112.963661,125.039803 113.977402,123.153687 
	C113.762863,122.220291 113.377861,121.578842 112.992867,120.937401 
z"/>
<path fill="#43B4A9" opacity="1.000000" stroke="none" 
	d="
M113.056587,121.415894 
	C113.377861,121.578842 113.762863,122.220291 113.764328,122.842865 
	C113.293976,122.514137 113.207138,122.204262 113.056587,121.415894 
z"/>
</svg>