<svg version="1.1" id="Layer_1" xmlns="http://www.w3.org/2000/svg" xmlns:xlink="http://www.w3.org/1999/xlink" x="0px" y="0px"
	 width="100%" viewBox="0 0 240 240" enable-background="new 0 0 240 240" xml:space="preserve">
<path fill="#F0C30F" opacity="1.000000" stroke="none" 
	d="
M136.000000,241.000000 
	C126.312439,241.000000 116.624878,241.000000 106.261169,240.645126 
	C91.662788,239.190842 78.608727,234.796310 66.348320,228.533966 
	C51.448997,220.923737 38.498264,210.661301 27.865789,197.489426 
	C17.965200,185.224258 10.436301,171.796692 6.037721,156.691452 
	C4.055035,149.882675 2.661075,142.902435 1.000000,136.000000 
	C1.000000,126.312439 1.000000,116.624878 1.354874,106.261169 
	C3.320931,90.244591 8.273392,76.054276 15.675040,62.527725 
	C23.057930,49.035461 32.798851,37.730232 44.524212,27.884119 
	C56.628323,17.719965 70.203972,10.437790 85.308235,6.038012 
	C92.116943,4.054678 99.097443,2.661140 106.000000,1.000000 
	C115.687561,1.000000 125.375122,1.000000 135.738831,1.354878 
	C151.039246,2.804991 164.622208,7.646529 177.428223,14.316334 
	C192.309219,22.066870 205.118164,32.659477 215.462204,45.989811 
	C224.763077,57.975838 232.159668,70.999741 236.042328,85.794403 
	C237.802475,92.501373 239.353897,99.263107 241.000000,106.000000 
	C241.000000,115.687561 241.000000,125.375122 240.645111,135.738861 
	C240.169861,138.233276 240.256912,140.093567 239.898148,141.863495 
	C234.033142,170.796921 220.524155,195.207657 197.470032,214.107285 
	C183.299576,225.724152 167.454697,233.799911 149.638138,238.009415 
	C145.109375,239.079391 140.546951,240.006989 136.000000,241.000000 
M177.957214,182.618088 
	C190.775070,172.577118 189.847946,155.334610 175.904465,146.844604 
	C172.236862,144.611435 168.208282,142.972916 164.354782,141.042694 
	C161.689056,139.707428 158.400482,138.902145 156.570480,136.821808 
	C154.895660,134.917847 153.811279,131.396149 154.349319,129.012222 
	C154.737946,127.290375 158.411209,124.930870 160.266617,125.209106 
	C164.011261,125.770645 167.515625,127.934494 172.460312,129.996857 
	C174.596039,128.608475 178.397980,126.136955 182.192184,123.670471 
	C174.502899,111.653099 159.411362,107.963417 147.874619,114.916054 
	C142.566330,118.115112 139.438171,122.777771 138.762466,129.012817 
	C137.583923,139.887726 142.219711,147.388199 153.644302,152.917404 
	C158.119598,155.083313 163.026260,156.616013 166.992050,159.471085 
	C169.074051,160.969971 170.902527,165.015533 170.365112,167.336838 
	C169.834991,169.626663 166.444458,172.118011 163.831573,172.876266 
	C158.886185,174.311371 154.319656,172.507889 150.905273,168.444504 
	C149.537567,166.816833 148.270325,165.104736 146.791245,163.219345 
	C142.790909,165.892365 138.996719,168.427628 135.260239,170.924332 
	C143.528610,186.411560 160.749969,191.152130 177.957214,182.618088 
M127.173698,144.500076 
	C127.173698,133.718109 127.173698,122.936142 127.173698,112.046539 
	C121.765060,112.046539 116.890465,112.046539 111.689560,112.046539 
	C111.689560,114.372635 111.690659,116.349815 111.689384,118.327003 
	C111.680107,132.656540 111.758133,146.987061 111.599220,161.314941 
	C111.559319,164.913589 111.479828,168.956039 107.052444,170.436890 
	C102.666336,171.903946 98.853271,170.578506 95.627983,167.430069 
	C94.470383,166.300064 93.446938,165.032639 92.185600,163.631714 
	C88.116348,166.154999 84.236519,168.560837 78.826645,171.915421 
	C84.393532,176.563828 88.512962,181.371216 93.721413,184.099854 
	C110.273872,192.771484 126.915375,182.519470 127.159760,163.995285 
	C127.241074,157.831238 127.173302,151.665207 127.173698,144.500076 
M129.730225,70.751198 
	C127.900391,64.097649 124.323479,62.668285 114.277390,64.547180 
	C114.277390,72.605797 114.277390,80.650040 114.277390,88.758560 
	C122.721230,89.557587 116.553284,81.866814 120.097839,79.809120 
	C124.659508,81.015541 121.774200,91.124306 130.202667,88.288193 
	C128.891159,84.969719 127.628822,81.775711 126.749702,79.551308 
	C127.967728,76.354668 128.885178,73.946877 129.730225,70.751198 
M88.264366,82.103714 
	C82.932877,75.309410 89.501312,70.169945 90.862244,64.455742 
	C84.077972,61.711849 84.665527,68.198517 82.315208,71.316788 
	C79.758522,68.446449 80.435371,61.678097 72.798004,64.812111 
	C80.520897,72.460426 78.477440,80.499969 73.133102,88.197975 
	C80.768486,91.378098 79.438202,83.614937 82.434296,81.369728 
	C84.765785,84.447769 84.018051,90.918373 91.099762,88.267998 
	C90.247849,86.357918 89.448456,84.565620 88.264366,82.103714 
M57.266296,69.682945 
	C57.266296,75.939110 57.266296,82.195267 57.266296,88.343674 
	C68.932411,89.919777 71.428871,89.302017 71.229797,84.944710 
	C68.381180,84.714058 65.502785,84.481003 62.662476,84.251022 
	C62.662476,81.928062 62.662476,80.183418 62.662476,78.479866 
	C70.179169,77.536987 70.179169,77.536987 69.254204,74.084198 
	C67.122551,73.985260 64.990898,73.886314 62.757710,73.782654 
	C62.757710,71.870316 62.757710,70.181694 62.757710,68.541458 
	C71.483574,67.553886 71.483574,67.553886 71.081657,64.175003 
	C66.677582,64.175003 62.256851,64.175003 57.529755,64.175003 
	C57.434319,65.825653 57.350372,67.277512 57.266296,69.682945 
M169.305069,72.796669 
	C171.968079,74.883385 174.724899,76.864700 177.247177,79.109543 
	C178.233887,79.987724 178.949921,81.393394 179.274368,82.687866 
	C179.413940,83.244812 178.138443,84.807922 177.689545,84.737816 
	C176.380249,84.533325 175.134430,83.791695 173.917786,83.157043 
	C172.291580,82.308739 170.716171,81.363075 168.032043,79.844147 
	C168.570526,82.349541 168.649658,83.013405 168.856934,83.634499 
	C170.318481,88.013725 173.729309,89.233391 177.888031,88.987999 
	C181.425995,88.779228 183.884171,87.035522 184.476105,83.368881 
	C185.167419,79.086647 182.954697,76.476440 179.253555,74.797920 
	C178.049026,74.251648 176.507507,73.865585 175.825134,72.905281 
	C175.054733,71.821068 175.078568,70.172485 174.756973,68.769348 
	C176.160217,68.908104 177.645462,68.804787 178.946411,69.245514 
	C180.657928,69.825325 182.224472,70.833046 184.577240,72.022835 
	C183.329346,65.361580 181.063904,63.465721 176.051361,63.748203 
	C171.211258,64.020973 169.255295,66.350311 169.305069,72.796669 
M159.729248,68.534897 
	C160.970230,71.365944 162.985184,71.848694 165.718430,70.614471 
	C165.042816,65.947769 162.374512,63.725136 157.915283,63.706398 
	C153.988129,63.689896 151.037613,65.371979 150.274384,69.443817 
	C149.442200,73.883469 152.389542,76.104408 155.851181,77.850334 
	C157.033401,78.446617 158.792068,78.775360 159.248230,79.725327 
	C159.889816,81.061409 159.562836,82.862602 159.650055,84.464890 
	C158.196350,84.160240 156.611938,84.120750 155.321640,83.484642 
	C153.664124,82.667496 152.242813,81.371216 149.729568,79.572807 
	C149.920303,86.441025 152.956161,88.504013 157.399094,88.965919 
	C161.270096,89.368362 164.535324,88.070045 165.561783,84.042023 
	C166.670151,79.692619 164.554230,76.673454 160.544968,74.896568 
	C159.483658,74.426208 158.211075,74.122765 157.462097,73.336372 
	C156.538437,72.366554 156.060593,70.972130 155.390091,69.761208 
	C156.591736,69.212646 157.793396,68.664093 159.729248,68.534897 
M145.016754,68.092896 
	C145.879807,67.011482 146.742859,65.930061 148.011017,64.341042 
	C142.097748,64.341042 137.696793,64.341042 133.383484,64.341042 
	C133.383484,72.607544 133.383484,80.502663 133.383484,88.345634 
	C144.724899,89.914742 147.120377,89.307503 146.769150,84.591385 
	C144.062256,84.591385 141.304581,84.591385 138.364105,84.591385 
	C138.364105,82.208458 138.364105,80.302788 138.364105,78.204697 
	C141.027237,78.060448 143.440063,77.929764 145.977097,77.792351 
	C146.177628,70.905983 140.457733,75.802254 138.424179,73.219704 
	C138.424179,71.825111 138.424179,70.124519 138.424179,68.096558 
	C140.548553,68.096558 142.352692,68.096558 145.016754,68.092896 
M100.316818,63.982800 
	C98.365784,63.982800 96.414742,63.982800 94.283279,63.982800 
	C94.283279,72.431664 94.283279,80.468491 94.283279,88.826668 
	C95.977699,88.713440 97.358650,88.621162 99.085876,88.505737 
	C99.085876,85.552460 99.085876,82.948624 99.085876,80.401520 
	C107.793991,79.465218 110.504486,77.402695 110.443001,72.003113 
	C110.385132,66.921432 107.387764,64.315399 100.316818,63.982800 
z"/>
<path fill="#4C6971" opacity="1.000000" stroke="none" 
	d="
M1.000000,136.468658 
	C2.661075,142.902435 4.055035,149.882675 6.037721,156.691452 
	C10.436301,171.796692 17.965200,185.224258 27.865789,197.489426 
	C38.498264,210.661301 51.448997,220.923737 66.348320,228.533966 
	C78.608727,234.796310 91.662788,239.190842 105.792511,240.645126 
	C71.073059,241.000000 36.146114,241.000000 1.000000,241.000000 
	C1.000000,206.312744 1.000000,171.625031 1.000000,136.468658 
z"/>
<path fill="#4C6971" opacity="1.000000" stroke="none" 
	d="
M136.468658,241.000000 
	C140.546951,240.006989 145.109375,239.079391 149.638138,238.009415 
	C167.454697,233.799911 183.299576,225.724152 197.470032,214.107285 
	C220.524155,195.207657 234.033142,170.796921 239.898148,141.863495 
	C240.256912,140.093567 240.169861,138.233276 240.645111,136.207520 
	C241.000000,170.926941 241.000000,205.853882 241.000000,241.000000 
	C206.312744,241.000000 171.625031,241.000000 136.468658,241.000000 
z"/>
<path fill="#4C6971" opacity="1.000000" stroke="none" 
	d="
M105.531342,1.000000 
	C99.097443,2.661140 92.116943,4.054678 85.308235,6.038012 
	C70.203972,10.437790 56.628323,17.719965 44.524212,27.884119 
	C32.798851,37.730232 23.057930,49.035461 15.675040,62.527725 
	C8.273392,76.054276 3.320931,90.244591 1.354874,105.792511 
	C1.000000,71.073059 1.000000,36.146111 1.000000,1.000000 
	C35.687252,1.000000 70.374969,1.000000 105.531342,1.000000 
z"/>
<path fill="#4C6971" opacity="1.000000" stroke="none" 
	d="
M241.000000,105.531342 
	C239.353897,99.263107 237.802475,92.501373 236.042328,85.794403 
	C232.159668,70.999741 224.763077,57.975838 215.462204,45.989811 
	C205.118164,32.659477 192.309219,22.066870 177.428223,14.316334 
	C164.622208,7.646529 151.039246,2.804991 136.207489,1.354878 
	C170.926941,1.000000 205.853882,1.000000 241.000000,1.000000 
	C241.000000,35.687252 241.000000,70.374969 241.000000,105.531342 
z"/>
<path fill="#040300" opacity="1.000000" stroke="none" 
	d="
M177.629120,182.795990 
	C160.749969,191.152130 143.528610,186.411560 135.260239,170.924332 
	C138.996719,168.427628 142.790909,165.892365 146.791245,163.219345 
	C148.270325,165.104736 149.537567,166.816833 150.905273,168.444504 
	C154.319656,172.507889 158.886185,174.311371 163.831573,172.876266 
	C166.444458,172.118011 169.834991,169.626663 170.365112,167.336838 
	C170.902527,165.015533 169.074051,160.969971 166.992050,159.471085 
	C163.026260,156.616013 158.119598,155.083313 153.644302,152.917404 
	C142.219711,147.388199 137.583923,139.887726 138.762466,129.012817 
	C139.438171,122.777771 142.566330,118.115112 147.874619,114.916054 
	C159.411362,107.963417 174.502899,111.653099 182.192184,123.670471 
	C178.397980,126.136955 174.596039,128.608475 172.460312,129.996857 
	C167.515625,127.934494 164.011261,125.770645 160.266617,125.209106 
	C158.411209,124.930870 154.737946,127.290375 154.349319,129.012222 
	C153.811279,131.396149 154.895660,134.917847 156.570480,136.821808 
	C158.400482,138.902145 161.689056,139.707428 164.354782,141.042694 
	C168.208282,142.972916 172.236862,144.611435 175.904465,146.844604 
	C189.847946,155.334610 190.775070,172.577118 177.629120,182.795990 
z"/>
<path fill="#020100" opacity="1.000000" stroke="none" 
	d="
M127.173698,145.000092 
	C127.173302,151.665207 127.241074,157.831238 127.159760,163.995285 
	C126.915375,182.519470 110.273872,192.771484 93.721413,184.099854 
	C88.512962,181.371216 84.393532,176.563828 78.826645,171.915421 
	C84.236519,168.560837 88.116348,166.154999 92.185600,163.631714 
	C93.446938,165.032639 94.470383,166.300064 95.627983,167.430069 
	C98.853271,170.578506 102.666336,171.903946 107.052444,170.436890 
	C111.479828,168.956039 111.559319,164.913589 111.599220,161.314941 
	C111.758133,146.987061 111.680107,132.656540 111.689384,118.327003 
	C111.690659,116.349815 111.689560,114.372635 111.689560,112.046539 
	C116.890465,112.046539 121.765060,112.046539 127.173698,112.046539 
	C127.173698,122.936142 127.173698,133.718109 127.173698,145.000092 
z"/>
<path fill="#0A0801" opacity="1.000000" stroke="none" 
	d="
M129.766418,71.145142 
	C128.885178,73.946877 127.967728,76.354668 126.749702,79.551308 
	C127.628822,81.775711 128.891159,84.969719 130.202667,88.288193 
	C121.774200,91.124306 124.659508,81.015541 120.097839,79.809120 
	C116.553284,81.866814 122.721230,89.557587 114.277390,88.758560 
	C114.277390,80.650040 114.277390,72.605797 114.277390,64.547180 
	C124.323479,62.668285 127.900391,64.097649 129.766418,71.145142 
M123.900352,74.423332 
	C125.277100,69.114616 124.253944,67.874733 119.217941,68.685661 
	C119.217941,70.913765 119.217941,73.129135 119.217941,75.766937 
	C120.859863,75.436317 122.104118,75.185768 123.900352,74.423332 
z"/>
<path fill="#0B0901" opacity="1.000000" stroke="none" 
	d="
M88.456711,82.438515 
	C89.448456,84.565620 90.247849,86.357918 91.099762,88.267998 
	C84.018051,90.918373 84.765785,84.447769 82.434296,81.369728 
	C79.438202,83.614937 80.768486,91.378098 73.133102,88.197975 
	C78.477440,80.499969 80.520897,72.460426 72.798004,64.812111 
	C80.435371,61.678097 79.758522,68.446449 82.315208,71.316788 
	C84.665527,68.198517 84.077972,61.711849 90.862244,64.455742 
	C89.501312,70.169945 82.932877,75.309410 88.456711,82.438515 
z"/>
<path fill="#100D01" opacity="1.000000" stroke="none" 
	d="
M57.266365,69.206161 
	C57.350372,67.277512 57.434319,65.825653 57.529755,64.175003 
	C62.256851,64.175003 66.677582,64.175003 71.081657,64.175003 
	C71.483574,67.553886 71.483574,67.553886 62.757710,68.541458 
	C62.757710,70.181694 62.757710,71.870316 62.757710,73.782654 
	C64.990898,73.886314 67.122551,73.985260 69.254242,74.088181 
	C70.179169,77.536987 70.179169,77.536987 62.662476,78.479866 
	C62.662476,80.183418 62.662476,81.928062 62.662476,84.251022 
	C65.502785,84.481003 68.381180,84.714058 71.229797,84.944710 
	C71.428871,89.302017 68.932411,89.919777 57.266296,88.343674 
	C57.266296,82.195267 57.266296,75.939110 57.266365,69.206161 
z"/>
<path fill="#0A0801" opacity="1.000000" stroke="none" 
	d="
M169.196396,72.418915 
	C169.255295,66.350311 171.211258,64.020973 176.051361,63.748203 
	C181.063904,63.465721 183.329346,65.361580 184.577240,72.022835 
	C182.224472,70.833046 180.657928,69.825325 178.946411,69.245514 
	C177.645462,68.804787 176.160217,68.908104 174.756973,68.769348 
	C175.078568,70.172485 175.054733,71.821068 175.825134,72.905281 
	C176.507507,73.865585 178.049026,74.251648 179.253555,74.797920 
	C182.954697,76.476440 185.167419,79.086647 184.476105,83.368881 
	C183.884171,87.035522 181.425995,88.779228 177.888031,88.987999 
	C173.729309,89.233391 170.318481,88.013725 168.856934,83.634499 
	C168.649658,83.013405 168.570526,82.349541 168.032043,79.844147 
	C170.716171,81.363075 172.291580,82.308739 173.917786,83.157043 
	C175.134430,83.791695 176.380249,84.533325 177.689545,84.737816 
	C178.138443,84.807922 179.413940,83.244812 179.274368,82.687866 
	C178.949921,81.393394 178.233887,79.987724 177.247177,79.109543 
	C174.724899,76.864700 171.968079,74.883385 169.196396,72.418915 
z"/>
<path fill="#0A0801" opacity="1.000000" stroke="none" 
	d="
M159.362152,68.325218 
	C157.793396,68.664093 156.591736,69.212646 155.390091,69.761200 
	C156.060593,70.972130 156.538437,72.366554 157.462097,73.336372 
	C158.211075,74.122765 159.483658,74.426208 160.544968,74.896568 
	C164.554230,76.673454 166.670151,79.692619 165.561783,84.042023 
	C164.535324,88.070045 161.270096,89.368362 157.399094,88.965919 
	C152.956161,88.504013 149.920303,86.441025 149.729568,79.572807 
	C152.242813,81.371216 153.664124,82.667496 155.321640,83.484642 
	C156.611938,84.120750 158.196350,84.160240 159.650055,84.464890 
	C159.562836,82.862602 159.889816,81.061409 159.248230,79.725327 
	C158.792068,78.775360 157.033401,78.446617 155.851181,77.850334 
	C152.389542,76.104408 149.442200,73.883469 150.274384,69.443817 
	C151.037613,65.371979 153.988129,63.689896 157.915283,63.706398 
	C162.374512,63.725136 165.042816,65.947769 165.718430,70.614471 
	C162.985184,71.848694 160.970230,71.365944 159.362152,68.325218 
z"/>
<path fill="#080600" opacity="1.000000" stroke="none" 
	d="
M144.586792,68.094727 
	C142.352692,68.096558 140.548553,68.096558 138.424179,68.096558 
	C138.424179,70.124519 138.424179,71.825111 138.424179,73.219704 
	C140.457733,75.802254 146.177628,70.905983 145.977097,77.792351 
	C143.440063,77.929764 141.027237,78.060448 138.364105,78.204697 
	C138.364105,80.302788 138.364105,82.208458 138.364105,84.591385 
	C141.304581,84.591385 144.062256,84.591385 146.769150,84.591385 
	C147.120377,89.307503 144.724899,89.914742 133.383484,88.345634 
	C133.383484,80.502663 133.383484,72.607544 133.383484,64.341042 
	C137.696793,64.341042 142.097748,64.341042 148.011017,64.341042 
	C146.742859,65.930061 145.879807,67.011482 144.586792,68.094727 
z"/>
<path fill="#040300" opacity="1.000000" stroke="none" 
	d="
M100.768295,63.983437 
	C107.387764,64.315399 110.385132,66.921432 110.443001,72.003113 
	C110.504486,77.402695 107.793991,79.465218 99.085876,80.401520 
	C99.085876,82.948624 99.085876,85.552460 99.085876,88.505737 
	C97.358650,88.621162 95.977699,88.713440 94.283279,88.826668 
	C94.283279,80.468491 94.283279,72.431664 94.283279,63.982800 
	C96.414742,63.982800 98.365784,63.982800 100.768295,63.983437 
M98.985336,73.325737 
	C98.701675,76.726799 101.388275,76.507050 102.838203,75.612724 
	C104.099403,74.834816 105.444290,72.026146 104.940628,71.042023 
	C104.106773,69.412727 101.816872,68.528610 100.140450,67.330536 
	C99.754753,67.735329 99.369057,68.140129 98.983360,68.544930 
	C98.983360,69.844162 98.983360,71.143394 98.985336,73.325737 
z"/>
<path fill="#DCB30E" opacity="1.000000" stroke="none" 
	d="
M123.624367,74.679276 
	C122.104118,75.185768 120.859863,75.436317 119.217941,75.766937 
	C119.217941,73.129135 119.217941,70.913765 119.217941,68.685661 
	C124.253944,67.874733 125.277100,69.114616 123.624367,74.679276 
z"/>
<path fill="#E5BA0E" opacity="1.000000" stroke="none" 
	d="
M98.984344,72.884186 
	C98.983360,71.143394 98.983360,69.844162 98.983360,68.544930 
	C99.369057,68.140129 99.754753,67.735329 100.140450,67.330536 
	C101.816872,68.528610 104.106773,69.412727 104.940628,71.042023 
	C105.444290,72.026146 104.099403,74.834816 102.838203,75.612724 
	C101.388275,76.507050 98.701675,76.726799 98.984344,72.884186 
z"/>
</svg>