<svg version="1.1" id="Layer_1" xmlns="http://www.w3.org/2000/svg" xmlns:xlink="http://www.w3.org/1999/xlink" x="0px" y="0px"
	 width="100%" viewBox="0 0 300 300" enable-background="new 0 0 300 300" xml:space="preserve">
<path fill="#0D63F8" opacity="1.000000" stroke="none" 
	d="
M301.000000,2.000000 
	C301.000000,2.000000 301.000000,2.500000 300.773102,3.095822 
	C300.364258,5.329650 300.023499,6.967615 300.023041,8.605670 
	C299.997559,103.478073 299.994354,198.350494 300.041901,293.222870 
	C300.042877,295.148743 300.666718,297.074310 301.000000,299.000000 
	C301.000000,299.000000 301.000000,299.500000 300.531342,299.748840 
	C200.375122,299.998444 100.687561,299.999207 1.000000,300.000000 
	C1.000000,300.000000 1.000000,299.500000 1.226914,298.904175 
	C1.635750,296.670319 1.976444,295.032318 1.976884,293.394257 
	C2.002372,198.521881 2.005573,103.649498 1.958020,8.777136 
	C1.957055,6.851264 1.333238,4.925705 1.000000,3.000000 
	C1.000000,3.000000 1.000000,2.500000 1.468656,2.251158 
	C101.624878,2.001544 201.312439,2.000772 301.000000,2.000000 
M73.280083,112.983894 
	C72.522057,113.656517 71.764038,114.329132 70.369957,115.222755 
	C67.296890,119.099564 63.641052,122.649094 61.249111,126.908401 
	C49.307808,148.172180 37.691177,169.618378 25.983982,191.013351 
	C24.896082,193.001480 23.974154,195.080460 23.359449,197.785324 
	C24.228209,198.177795 25.094913,198.906967 25.966042,198.912262 
	C39.100536,198.992462 52.236130,199.029266 65.369705,198.899078 
	C66.586693,198.887009 67.791771,197.672379 69.244110,196.363663 
	C72.061928,191.271835 74.909782,186.196365 77.692307,181.085327 
	C89.137573,160.062241 100.563004,139.028366 112.495026,117.583168 
	C113.041153,116.414810 113.587273,115.246452 114.056213,114.068466 
	C114.056213,114.068466 114.094788,114.136002 114.639862,113.714348 
	C116.105469,110.624718 117.571068,107.535080 118.554443,103.884529 
	C109.418327,103.758568 100.281898,103.561096 91.146523,103.601570 
	C90.064636,103.606361 88.988518,104.913437 87.329132,105.939919 
	C83.834572,107.589798 80.340012,109.239677 76.914948,110.925774 
	C76.914948,110.925774 76.906807,110.847832 76.287125,110.975670 
	C75.462555,111.603302 74.637985,112.230927 73.889229,112.888603 
	C73.889229,112.888603 73.873199,112.808647 73.280083,112.983894 
M173.548737,103.890076 
	C172.962784,103.621513 172.377930,103.121147 171.790726,103.118385 
	C158.241287,103.054588 144.691284,103.002243 131.142624,103.108093 
	C130.086807,103.116341 129.040176,104.301903 127.945816,105.458260 
	C127.933800,105.631096 127.921776,105.803940 127.356110,106.384712 
	C112.264267,133.872849 97.163025,161.355820 82.095345,188.857208 
	C80.615471,191.558258 79.341629,194.372177 78.358467,197.799393 
	C79.230194,198.187439 80.099922,198.908386 80.973938,198.913620 
	C94.109962,198.992569 107.247070,199.029388 120.382126,198.897354 
	C121.592896,198.885193 122.791428,197.655930 124.086655,196.285614 
	C127.556267,190.074600 131.077484,183.891754 134.486252,177.647522 
	C146.977646,154.765488 159.431656,131.863037 172.399368,108.437790 
	C172.945618,107.106606 173.491867,105.775429 173.548737,103.890076 
M133.690552,198.271423 
	C141.854462,198.455566 150.018036,198.672638 158.182983,198.754730 
	C158.768478,198.760605 159.363876,197.779434 160.600967,197.116364 
	C162.352341,196.616867 164.135757,196.208160 165.849899,195.603134 
	C177.104843,191.630554 185.676559,184.703018 191.407501,173.959366 
	C203.730423,150.857880 216.445328,127.965500 228.640976,104.298019 
	C227.622223,103.871964 226.605865,103.081856 225.584335,103.075073 
	C212.612457,102.988922 199.639328,102.963982 186.668259,103.096130 
	C185.433304,103.108711 184.210175,104.282867 182.683792,105.542686 
	C166.543823,134.895325 150.393921,164.242538 134.298874,193.619781 
	C133.630463,194.839783 133.475189,196.340912 133.690552,198.271423 
M233.322906,130.969757 
	C234.983582,138.763824 238.364838,145.104721 246.186249,148.617203 
	C256.660767,153.321152 268.878265,150.225418 275.356995,140.717728 
	C281.555542,131.621201 280.249664,117.522171 272.545410,110.361847 
	C266.359528,104.612694 254.781494,102.825630 246.756027,106.709969 
	C237.041000,111.412056 232.641815,119.375626 233.322906,130.969757 
z"/>
<path fill="#1A6CF8" opacity="1.000000" stroke="none" 
	d="
M301.000000,1.500000 
	C201.312439,2.000772 101.624878,2.001544 1.468656,2.001158 
	C2.500000,1.666667 3.999851,1.042363 5.500021,1.041595 
	C96.166664,0.995186 186.833328,1.000000 277.500000,1.000000 
	C285.333344,1.000000 293.166656,1.000000 301.000000,1.500000 
z"/>
<path fill="#1A6CF8" opacity="1.000000" stroke="none" 
	d="
M1.000000,300.500000 
	C100.687561,299.999207 200.375122,299.998444 300.531342,299.998840 
	C299.500000,300.333313 298.000153,300.957611 296.499969,300.958374 
	C205.666672,301.004791 114.833336,301.000000 24.000000,301.000000 
	C16.333334,301.000000 8.666667,301.000000 1.000000,300.500000 
z"/>
<path fill="#1A6CF8" opacity="1.000000" stroke="none" 
	d="
M301.000000,298.531342 
	C300.666718,297.074310 300.042877,295.148743 300.041901,293.222870 
	C299.994354,198.350494 299.997559,103.478073 300.023041,8.605670 
	C300.023499,6.967615 300.364258,5.329650 300.773102,3.345822 
	C301.000000,101.354225 301.000000,199.708450 301.000000,298.531342 
z"/>
<path fill="#1A6CF8" opacity="1.000000" stroke="none" 
	d="
M1.000000,3.468657 
	C1.333238,4.925705 1.957055,6.851264 1.958020,8.777136 
	C2.005573,103.649498 2.002372,198.521881 1.976884,293.394257 
	C1.976444,295.032318 1.635750,296.670319 1.226914,298.654175 
	C1.000000,200.645767 1.000000,102.291542 1.000000,3.468657 
z"/>
<path fill="#F5F5F5" opacity="1.000000" stroke="none" 
	d="
M171.899734,108.968277 
	C159.431656,131.863037 146.977646,154.765488 134.486252,177.647522 
	C131.077484,183.891754 127.556267,190.074600 123.576385,196.700592 
	C108.034798,197.121628 93.003471,197.127670 77.972145,197.133713 
	C79.341629,194.372177 80.615471,191.558258 82.095345,188.857208 
	C97.163025,161.355820 112.264267,133.872849 127.840202,106.025894 
	C128.556213,105.412636 128.788132,105.158180 129.467545,104.757446 
	C143.606171,104.695930 157.297287,104.780678 170.992554,105.226776 
	C171.297714,106.714836 171.598724,107.841560 171.899734,108.968277 
z"/>
<path fill="#F4F5F5" opacity="1.000000" stroke="none" 
	d="
M228.999771,104.987526 
	C216.445328,127.965500 203.730423,150.857880 191.407501,173.959366 
	C185.676559,184.703018 177.104843,191.630554 165.849899,195.603134 
	C164.135757,196.208160 162.352341,196.616867 159.814209,197.169189 
	C150.378571,197.385025 141.729721,197.548050 133.080856,197.711090 
	C133.475189,196.340912 133.630463,194.839783 134.298874,193.619781 
	C150.393921,164.242538 166.543823,134.895325 183.301590,105.201363 
	C198.946182,104.902534 213.972977,104.945030 228.999771,104.987526 
z"/>
<path fill="#F5F5F5" opacity="1.000000" stroke="none" 
	d="
M22.975159,197.117249 
	C23.974154,195.080460 24.896082,193.001480 25.983982,191.013351 
	C37.691177,169.618378 49.307808,148.172180 61.249111,126.908401 
	C63.641052,122.649094 67.296890,119.099564 71.028687,115.082489 
	C72.416016,114.231026 73.144608,113.519836 73.873199,112.808640 
	C73.873199,112.808647 73.889229,112.888603 74.204880,112.878502 
	C75.315956,112.194878 76.111382,111.521355 76.906807,110.847832 
	C76.906807,110.847832 76.914948,110.925774 77.271988,110.910934 
	C82.753593,108.934280 87.878151,106.972466 93.455566,104.879486 
	C101.271500,104.783073 108.634590,104.817802 115.992668,105.257401 
	C115.356705,108.486847 114.725739,111.311424 114.094788,114.136002 
	C114.094788,114.136002 114.056213,114.068466 113.785172,114.137787 
	C113.008003,115.470901 112.501869,116.734680 111.995728,117.998459 
	C100.563004,139.028366 89.137573,160.062241 77.692307,181.085327 
	C74.909782,186.196365 72.061928,191.271835 68.657028,196.742081 
	C53.038357,197.119415 38.006756,197.118332 22.975159,197.117249 
z"/>
<path fill="#F3F4F5" opacity="1.000000" stroke="none" 
	d="
M233.268738,130.545914 
	C232.641815,119.375626 237.041000,111.412056 246.756027,106.709969 
	C254.781494,102.825630 266.359528,104.612694 272.545410,110.361847 
	C280.249664,117.522171 281.555542,131.621201 275.356995,140.717728 
	C268.878265,150.225418 256.660767,153.321152 246.186249,148.617203 
	C238.364838,145.104721 234.983582,138.763824 233.268738,130.545914 
z"/>
<path fill="#0053F8" opacity="1.000000" stroke="none" 
	d="
M228.820374,104.642776 
	C213.972977,104.945030 198.946182,104.902534 183.450470,104.888901 
	C184.210175,104.282867 185.433304,103.108711 186.668259,103.096130 
	C199.639328,102.963982 212.612457,102.988922 225.584335,103.075073 
	C226.605865,103.081856 227.622223,103.871964 228.820374,104.642776 
z"/>
<path fill="#0049F8" opacity="1.000000" stroke="none" 
	d="
M170.988419,104.865425 
	C157.297287,104.780678 143.606171,104.695930 129.207550,104.702263 
	C128.329788,104.842331 128.159531,104.891312 127.989273,104.940292 
	C129.040176,104.301903 130.086807,103.116341 131.142624,103.108093 
	C144.691284,103.002243 158.241287,103.054588 171.790726,103.118385 
	C172.377930,103.121147 172.962784,103.621513 173.408356,104.199120 
	C172.508118,104.627251 171.748260,104.746338 170.988419,104.865425 
z"/>
<path fill="#0053F8" opacity="1.000000" stroke="none" 
	d="
M23.167303,197.451294 
	C38.006756,197.118332 53.038357,197.119415 68.536163,197.068314 
	C67.791771,197.672379 66.586693,198.887009 65.369705,198.899078 
	C52.236130,199.029266 39.100536,198.992462 25.966042,198.912262 
	C25.094913,198.906967 24.228209,198.177795 23.167303,197.451294 
z"/>
<path fill="#0053F8" opacity="1.000000" stroke="none" 
	d="
M78.165306,197.466553 
	C93.003471,197.127670 108.034798,197.121628 123.530884,197.053696 
	C122.791428,197.655930 121.592896,198.885193 120.382126,198.897354 
	C107.247070,199.029388 94.109962,198.992569 80.973938,198.913620 
	C80.099922,198.908386 79.230194,198.187439 78.165306,197.466553 
z"/>
<path fill="#024DF8" opacity="1.000000" stroke="none" 
	d="
M115.997673,104.852539 
	C108.634590,104.817802 101.271500,104.783073 93.027550,104.837173 
	C90.734360,105.156288 89.322044,105.386559 87.909721,105.616837 
	C88.988518,104.913437 90.064636,103.606361 91.146523,103.601570 
	C100.281898,103.561096 109.418327,103.758568 118.411499,104.192207 
	C117.511597,104.617439 116.754639,104.734985 115.997673,104.852539 
z"/>
<path fill="#0049F8" opacity="1.000000" stroke="none" 
	d="
M133.385712,197.991257 
	C141.729721,197.548050 150.378571,197.385025 159.491058,197.239594 
	C159.363876,197.779434 158.768478,198.760605 158.182983,198.754730 
	C150.018036,198.672638 141.854462,198.455566 133.385712,197.991257 
z"/>
<path fill="#F3F7F5" opacity="1.000000" stroke="none" 
	d="
M87.619431,105.778374 
	C89.322044,105.386559 90.734360,105.156288 92.574692,104.968330 
	C87.878151,106.972466 82.753593,108.934280 77.237244,110.892830 
	C80.340012,109.239677 83.834572,107.589798 87.619431,105.778374 
z"/>
<path fill="#F3F7F5" opacity="1.000000" stroke="none" 
	d="
M115.992668,105.257401 
	C116.754639,104.734985 117.511597,104.617439 118.652618,104.472672 
	C117.571068,107.535080 116.105469,110.624718 114.367325,113.925171 
	C114.725739,111.311424 115.356705,108.486847 115.992668,105.257401 
z"/>
<path fill="#FCFDF5" opacity="1.000000" stroke="none" 
	d="
M170.992554,105.226776 
	C171.748260,104.746338 172.508118,104.627251 173.653046,104.476204 
	C173.491867,105.775429 172.945618,107.106606 172.149551,108.703033 
	C171.598724,107.841560 171.297714,106.714836 170.992554,105.226776 
z"/>
<path fill="#F3F7F5" opacity="1.000000" stroke="none" 
	d="
M112.245377,117.790817 
	C112.501869,116.734680 113.008003,115.470901 113.823761,114.142601 
	C113.587273,115.246452 113.041153,116.414810 112.245377,117.790817 
z"/>
<path fill="#F3F7F5" opacity="1.000000" stroke="none" 
	d="
M76.596970,110.911751 
	C76.111382,111.521355 75.315956,112.194878 74.166969,112.863480 
	C74.637985,112.230927 75.462555,111.603302 76.596970,110.911751 
z"/>
<path fill="#F3F7F5" opacity="1.000000" stroke="none" 
	d="
M73.576637,112.896271 
	C73.144608,113.519836 72.416016,114.231026 71.346718,114.971985 
	C71.764038,114.329132 72.522057,113.656517 73.576637,112.896271 
z"/>
<path fill="#FCFDF5" opacity="1.000000" stroke="none" 
	d="
M127.967545,105.199280 
	C128.159531,104.891312 128.329788,104.842331 128.760040,104.848541 
	C128.788132,105.158180 128.556213,105.412636 128.117035,105.821938 
	C127.921776,105.803940 127.933800,105.631096 127.967545,105.199280 
z"/>
</svg>