<svg version="1.1" id="Layer_1" xmlns="http://www.w3.org/2000/svg" xmlns:xlink="http://www.w3.org/1999/xlink" x="0px" y="0px"
	 width="100%" viewBox="0 0 512 512" enable-background="new 0 0 512 512" xml:space="preserve">
<path fill="#F3F3F3" opacity="1.000000" stroke="none" 
	d="
M513.000000,244.000000 
	C513.000000,258.687561 513.000000,273.375122 512.616821,288.621216 
	C511.826965,290.012543 511.195831,290.808105 511.050140,291.684326 
	C510.155334,297.066772 509.609802,302.516907 508.508118,307.853699 
	C503.028564,334.397522 493.797211,359.518677 480.474060,383.202057 
	C464.786926,411.087646 444.289093,434.925018 419.871613,455.299774 
	C402.222778,470.026550 382.730225,482.023499 361.554657,491.330200 
	C339.199799,501.155212 316.082581,507.871094 291.900146,511.073853 
	C290.866516,511.210754 289.963745,512.335510 289.000000,513.000000 
	C193.080490,513.000000 97.160980,513.000000 1.000000,513.000000 
	C1.000000,435.312592 1.000000,357.624969 1.401249,279.620361 
	C2.125175,282.510742 2.447853,285.718109 2.817802,289.395355 
	C9.454934,285.631714 15.455861,282.087372 21.600613,278.812927 
	C24.114550,277.473267 25.033278,275.865997 24.992674,272.973846 
	C24.819738,260.655609 25.012442,248.332352 24.853416,236.013718 
	C24.814653,233.011154 25.546272,231.155899 28.377966,229.740906 
	C33.710503,227.076294 38.832050,221.722488 44.043320,221.720016 
	C49.249821,221.717529 54.371838,227.069977 59.701904,229.732590 
	C62.536964,231.148849 63.255039,233.017181 63.217079,236.012131 
	C63.060944,248.330841 63.255203,260.654144 63.076035,272.972229 
	C63.033703,275.882568 64.007469,277.456543 66.488106,278.807495 
	C73.638443,282.701630 80.654785,286.841278 87.739052,290.857483 
	C92.149994,293.358124 96.588661,295.809875 101.543465,298.578979 
	C101.672478,297.191467 101.777832,296.585907 101.778046,295.980286 
	C101.787697,268.675018 101.854103,241.369202 101.632927,214.065720 
	C101.619003,212.347336 99.726646,210.011307 98.074577,209.036819 
	C81.325966,199.157700 64.405357,189.570374 47.643097,179.713959 
	C44.993435,178.155930 43.137035,178.150513 40.485023,179.700485 
	C29.749390,185.974945 18.847692,191.965302 8.003656,197.645538 
	C8.131611,196.247589 8.176307,195.243637 8.407527,194.284653 
	C13.573440,172.858490 21.741266,152.619431 32.316376,133.300217 
	C48.713985,103.344124 70.536705,77.999420 96.974663,56.500515 
	C112.911713,43.540779 130.379730,32.888206 148.903259,24.318542 
	C162.248199,18.144682 176.421829,13.603234 190.509628,9.252687 
	C199.145676,6.585731 208.338562,5.753965 217.237106,3.887053 
	C220.228317,3.259499 223.082947,1.980986 226.000000,1.000000 
	C246.354233,1.000000 266.708466,1.000000 287.619232,1.381158 
	C293.588043,2.839096 298.982178,4.018975 304.415771,4.974475 
	C325.806732,8.736094 346.405273,15.272719 365.892731,24.640875 
	C387.485657,35.021194 407.662018,47.753941 425.654205,63.906693 
	C439.318695,76.174194 451.982330,89.270287 462.900604,103.966850 
	C476.632446,122.450623 488.113739,142.303650 495.900146,164.039490 
	C499.803284,174.935120 502.638580,186.213272 505.590332,197.289185 
	C494.990479,191.386993 484.718506,185.579361 474.553864,179.589676 
	C472.337860,178.283875 470.691711,177.900009 468.265533,179.322205 
	C451.059418,189.408157 433.713196,199.255524 416.538208,209.393356 
	C415.078979,210.254669 413.719086,212.670380 413.702332,214.377625 
	C413.506561,234.355164 413.518341,254.335800 413.689453,274.313812 
	C413.703033,275.902588 414.899384,278.168793 416.232941,278.954742 
	C433.701111,289.250153 451.278503,299.361023 468.889496,309.411346 
	C469.970795,310.028473 471.897552,310.344025 472.866669,309.798126 
	C484.659515,303.155853 496.346466,296.325562 508.571381,289.248535 
	C506.586426,288.003387 505.237305,287.096558 503.832855,286.285553 
	C491.454956,279.137909 479.052216,272.033112 466.689514,264.859314 
	C461.522308,261.860901 454.461884,259.859192 451.864075,255.335770 
	C449.262970,250.806580 451.363708,243.684113 451.000214,237.722931 
	C450.780701,234.123032 451.783081,231.924927 455.141144,230.274826 
	C460.644409,227.570618 465.906952,222.040024 471.269012,222.042557 
	C476.620087,222.045090 481.871216,227.578735 487.355682,230.306335 
	C490.539154,231.889572 491.390289,234.033722 491.250854,237.377808 
	C491.006439,243.240051 491.182648,249.119858 491.182648,255.532318 
	C499.021149,251.388992 506.010590,247.694504 513.000000,244.000000 
M129.006027,276.714417 
	C129.507538,277.307159 129.894363,278.098969 130.527283,278.463684 
	C148.297150,288.703857 166.091888,298.900879 184.272293,309.660583 
	C185.900192,309.638214 187.864563,310.208588 189.105331,309.504242 
	C206.529633,299.613525 223.872208,289.577942 241.168442,279.464294 
	C242.368500,278.762573 243.045670,277.166656 244.090759,275.057770 
	C244.029861,254.054840 243.968964,233.051895 243.980713,211.342010 
	C243.702698,210.948883 243.512848,210.402451 243.134048,210.184616 
	C224.803955,199.644516 206.457581,189.132751 187.596237,178.132462 
	C186.077515,178.589264 184.404587,178.776520 183.063461,179.543777 
	C165.972855,189.321411 148.918396,199.162598 131.900284,209.065903 
	C130.762711,209.727890 129.992203,211.020691 128.916824,212.946289 
	C128.982941,233.966553 129.049057,254.986816 129.006027,276.714417 
M385.936676,199.500000 
	C385.936646,174.838959 385.969513,150.177795 385.867126,125.517189 
	C385.859802,123.753860 385.401093,121.031700 384.241272,120.382225 
	C372.387634,113.744591 360.345276,107.444054 347.524994,100.606293 
	C347.524994,130.257065 347.524994,159.088974 347.524994,188.757111 
	C341.675781,185.428879 336.579681,182.701004 331.674805,179.664230 
	C329.298767,178.193130 327.520111,177.994415 324.949951,179.507401 
	C308.035431,189.464478 291.028839,199.267105 273.962189,208.961548 
	C271.430481,210.399643 270.576263,212.011398 270.593353,214.863113 
	C270.710907,234.524582 270.720795,254.187531 270.584290,273.848755 
	C270.563873,276.785034 271.661224,278.269470 274.090668,279.655396 
	C290.994629,289.298584 307.853973,299.021729 324.635498,308.876038 
	C327.261230,310.417877 329.189941,310.423065 331.825958,308.874695 
	C348.462433,299.102234 365.172577,289.453125 381.951385,279.927032 
	C384.866608,278.271942 386.055695,276.472900 386.030121,272.982727 
	C385.852814,248.822876 385.936676,224.661133 385.936676,199.500000 
M310.789856,404.064240 
	C313.678192,403.114227 314.145386,400.992615 314.131744,398.199066 
	C314.033417,378.034912 314.029480,357.869843 314.135925,337.705811 
	C314.150757,334.893707 313.394012,333.243134 310.822906,331.782776 
	C293.160004,321.750458 275.646973,311.453735 257.950867,301.481354 
	C256.356079,300.582672 253.369797,300.598816 251.770126,301.501831 
	C234.225998,311.404968 216.864868,321.631836 199.354309,331.595490 
	C196.669693,333.123108 195.714478,334.815216 195.746216,337.866150 
	C195.898697,352.529724 195.787964,367.195862 195.826721,381.860931 
	C195.844315,388.515717 193.761719,396.485443 196.696518,401.461365 
	C199.739014,406.619873 207.824463,408.689667 213.484390,412.442047 
	C226.084717,420.795746 239.044693,411.424347 238.423080,398.163818 
	C237.635773,381.369110 238.241776,364.509491 238.218109,347.677917 
	C238.216095,346.245544 237.997620,344.813538 237.888702,343.490784 
	C235.074600,343.490784 232.701843,343.490784 230.082367,343.490784 
	C230.082367,361.583344 230.138351,379.237213 230.057831,396.890442 
	C230.019730,405.245941 223.848709,408.735687 216.473663,404.682220 
	C213.264496,402.918427 209.919388,401.282410 207.064392,399.042328 
	C205.552719,397.856232 204.107559,395.511200 204.083557,393.670410 
	C203.859650,376.508423 203.858475,359.341095 204.085220,342.179169 
	C204.109558,340.336517 205.526627,337.735901 207.084076,336.810455 
	C221.969055,327.965454 236.985077,319.337036 252.090912,310.873871 
	C253.552917,310.054688 256.270477,310.056458 257.732605,310.876465 
	C272.834839,319.346680 287.845428,327.984894 302.732086,336.828003 
	C304.303894,337.761719 305.816345,340.291229 305.841003,342.101074 
	C306.074738,359.262817 305.907349,376.429626 306.050903,393.593353 
	C306.075256,396.504913 305.055511,398.021698 302.594543,399.412384 
	C289.258484,406.948517 275.770813,414.266174 262.861115,422.484894 
	C256.896820,426.281921 252.131546,426.769623 246.884552,422.234985 
	C241.741226,417.789917 236.666824,418.537598 231.203674,422.600769 
	C237.932846,426.495483 244.602417,430.140625 251.027740,434.174744 
	C253.807541,435.920044 255.826324,435.913330 258.679871,434.232086 
	C275.750275,424.174408 292.956329,414.347015 310.789856,404.064240 
M289.028137,359.714661 
	C289.839844,358.652100 291.577454,357.077515 291.317596,356.607544 
	C289.132629,352.656494 287.446320,347.514191 283.977295,345.361969 
	C273.959320,339.146759 263.008362,339.462921 252.593277,344.891266 
	C246.018112,348.318207 245.258636,354.654572 246.060608,361.347504 
	C246.790176,367.436371 251.597549,368.667053 256.295593,369.971680 
	C258.208832,370.503021 260.204529,370.733826 262.158447,371.122986 
	C268.019318,372.290466 273.967773,373.145996 279.709656,374.743134 
	C284.425934,376.054962 285.461273,380.028961 282.597809,383.591492 
	C278.066620,389.228882 256.467621,387.893433 253.997055,381.194153 
	C251.779419,375.180725 248.157974,376.960754 244.317429,377.069092 
	C243.849106,385.243500 248.568878,392.344147 256.790009,394.135590 
	C266.128998,396.170593 275.690002,395.988373 284.804321,392.571625 
	C291.172882,390.184204 293.822998,384.837341 293.884430,378.379211 
	C293.941833,372.343536 290.381226,368.473724 284.932617,366.447479 
	C282.000305,365.357025 278.899963,364.654816 275.824585,364.026398 
	C270.291870,362.895844 264.650665,362.219635 259.204132,360.786102 
	C257.305054,360.286285 255.847107,358.110443 254.187714,356.700012 
	C255.771133,354.961945 257.107574,352.122650 258.986298,351.701294 
	C263.783752,350.625275 268.930634,349.837891 273.725433,350.491760 
	C276.637634,350.888855 280.136383,353.641663 281.596954,356.308228 
	C283.344452,359.498718 285.229095,360.104492 289.028137,359.714661 
M460.133392,238.336212 
	C460.086243,241.332489 459.986816,244.329086 460.005615,247.324936 
	C460.027496,250.804337 468.834229,257.495605 472.145721,256.607178 
	C479.030487,254.760101 482.416565,250.434372 482.214722,243.189926 
	C482.155457,241.061752 481.908203,238.163177 480.555328,236.978119 
	C473.965179,231.205261 471.536682,231.186310 463.946960,235.545181 
	C462.794769,236.206909 461.678162,236.930725 460.133392,238.336212 
z"/>
<path fill="#FFFFFF" opacity="1.000000" stroke="none" 
	d="
M225.531342,1.000000 
	C223.082947,1.980986 220.228317,3.259499 217.237106,3.887053 
	C208.338562,5.753965 199.145676,6.585731 190.509628,9.252687 
	C176.421829,13.603234 162.248199,18.144682 148.903259,24.318542 
	C130.379730,32.888206 112.911713,43.540779 96.974663,56.500515 
	C70.536705,77.999420 48.713985,103.344124 32.316376,133.300217 
	C21.741266,152.619431 13.573440,172.858490 8.407527,194.284653 
	C8.176307,195.243637 8.131611,196.247589 7.817545,197.967331 
	C6.139612,206.740692 4.631886,214.775085 3.153877,222.814926 
	C2.408134,226.871521 1.716241,230.937988 0.999999,235.000000 
	C1.000000,157.074387 1.000000,79.148773 1.000000,1.000000 
	C75.687416,1.000000 150.375046,1.000000 225.531342,1.000000 
z"/>
<path fill="#FFFFFF" opacity="1.000000" stroke="none" 
	d="
M505.956787,197.318420 
	C502.638580,186.213272 499.803284,174.935120 495.900146,164.039490 
	C488.113739,142.303650 476.632446,122.450623 462.900604,103.966850 
	C451.982330,89.270287 439.318695,76.174194 425.654205,63.906693 
	C407.662018,47.753941 387.485657,35.021194 365.892731,24.640875 
	C346.405273,15.272719 325.806732,8.736094 304.415771,4.974475 
	C298.982178,4.018975 293.588043,2.839096 288.087891,1.381158 
	C362.928619,1.000000 437.857269,1.000000 513.000000,1.000000 
	C513.000000,79.020767 513.000000,157.041718 512.605103,235.355652 
	C510.125702,222.871872 508.041260,210.095154 505.956787,197.318420 
z"/>
<path fill="#FFFFFF" opacity="1.000000" stroke="none" 
	d="
M289.468658,513.000000 
	C289.963745,512.335510 290.866516,511.210754 291.900146,511.073853 
	C316.082581,507.871094 339.199799,501.155212 361.554657,491.330200 
	C382.730225,482.023499 402.222778,470.026550 419.871613,455.299774 
	C444.289093,434.925018 464.786926,411.087646 480.474060,383.202057 
	C493.797211,359.518677 503.028564,334.397522 508.508118,307.853699 
	C509.609802,302.516907 510.155334,297.066772 511.050140,291.684326 
	C511.195831,290.808105 511.826965,290.012543 512.616821,289.089844 
	C513.000000,363.593719 513.000000,438.187408 513.000000,513.000000 
	C438.645905,513.000000 364.291626,513.000000 289.468658,513.000000 
z"/>
<path fill="#343434" opacity="1.000000" stroke="none" 
	d="
M505.590332,197.289185 
	C508.041260,210.095154 510.125702,222.871872 512.605103,235.824310 
	C513.000000,238.370560 513.000000,240.741104 513.000000,243.555832 
	C506.010590,247.694504 499.021149,251.388992 491.182648,255.532318 
	C491.182648,249.119858 491.006439,243.240051 491.250854,237.377808 
	C491.390289,234.033722 490.539154,231.889572 487.355682,230.306335 
	C481.871216,227.578735 476.620087,222.045090 471.269012,222.042557 
	C465.906952,222.040024 460.644409,227.570618 455.141144,230.274826 
	C451.783081,231.924927 450.780701,234.123032 451.000214,237.722931 
	C451.363708,243.684113 449.262970,250.806580 451.864075,255.335770 
	C454.461884,259.859192 461.522308,261.860901 466.689514,264.859314 
	C479.052216,272.033112 491.454956,279.137909 503.832855,286.285553 
	C505.237305,287.096558 506.586426,288.003387 508.571381,289.248535 
	C496.346466,296.325562 484.659515,303.155853 472.866669,309.798126 
	C471.897552,310.344025 469.970795,310.028473 468.889496,309.411346 
	C451.278503,299.361023 433.701111,289.250153 416.232941,278.954742 
	C414.899384,278.168793 413.703033,275.902588 413.689453,274.313812 
	C413.518341,254.335800 413.506561,234.355164 413.702332,214.377625 
	C413.719086,212.670380 415.078979,210.254669 416.538208,209.393356 
	C433.713196,199.255524 451.059418,189.408157 468.265533,179.322205 
	C470.691711,177.900009 472.337860,178.283875 474.553864,179.589676 
	C484.718506,185.579361 494.990479,191.386993 505.590332,197.289185 
z"/>
<path fill="#353535" opacity="1.000000" stroke="none" 
	d="
M0.999999,235.468658 
	C1.716241,230.937988 2.408134,226.871521 3.153877,222.814926 
	C4.631886,214.775085 6.139612,206.740692 7.821165,198.382263 
	C18.847692,191.965302 29.749390,185.974945 40.485023,179.700485 
	C43.137035,178.150513 44.993435,178.155930 47.643097,179.713959 
	C64.405357,189.570374 81.325966,199.157700 98.074577,209.036819 
	C99.726646,210.011307 101.619003,212.347336 101.632927,214.065720 
	C101.854103,241.369202 101.787697,268.675018 101.778046,295.980286 
	C101.777832,296.585907 101.672478,297.191467 101.543465,298.578979 
	C96.588661,295.809875 92.149994,293.358124 87.739052,290.857483 
	C80.654785,286.841278 73.638443,282.701630 66.488106,278.807495 
	C64.007469,277.456543 63.033703,275.882568 63.076035,272.972229 
	C63.255203,260.654144 63.060944,248.330841 63.217079,236.012131 
	C63.255039,233.017181 62.536964,231.148849 59.701904,229.732590 
	C54.371838,227.069977 49.249821,221.717529 44.043320,221.720016 
	C38.832050,221.722488 33.710503,227.076294 28.377966,229.740906 
	C25.546272,231.155899 24.814653,233.011154 24.853416,236.013718 
	C25.012442,248.332352 24.819738,260.655609 24.992674,272.973846 
	C25.033278,275.865997 24.114550,277.473267 21.600613,278.812927 
	C15.455861,282.087372 9.454934,285.631714 2.817802,289.395355 
	C2.447853,285.718109 2.125175,282.510742 1.401249,279.151672 
	C1.000000,264.645782 1.000000,250.291550 0.999999,235.468658 
z"/>
<path fill="#343434" opacity="1.000000" stroke="none" 
	d="
M385.936676,200.000000 
	C385.936676,224.661133 385.852814,248.822876 386.030121,272.982727 
	C386.055695,276.472900 384.866608,278.271942 381.951385,279.927032 
	C365.172577,289.453125 348.462433,299.102234 331.825958,308.874695 
	C329.189941,310.423065 327.261230,310.417877 324.635498,308.876038 
	C307.853973,299.021729 290.994629,289.298584 274.090668,279.655396 
	C271.661224,278.269470 270.563873,276.785034 270.584290,273.848755 
	C270.720795,254.187531 270.710907,234.524582 270.593353,214.863113 
	C270.576263,212.011398 271.430481,210.399643 273.962189,208.961548 
	C291.028839,199.267105 308.035431,189.464478 324.949951,179.507401 
	C327.520111,177.994415 329.298767,178.193130 331.674805,179.664230 
	C336.579681,182.701004 341.675781,185.428879 347.524994,188.757111 
	C347.524994,159.088974 347.524994,130.257065 347.524994,100.606293 
	C360.345276,107.444054 372.387634,113.744591 384.241272,120.382225 
	C385.401093,121.031700 385.859802,123.753860 385.867126,125.517189 
	C385.969513,150.177795 385.936646,174.838959 385.936676,200.000000 
M317.041565,228.550278 
	C310.217804,230.827133 307.585052,235.514511 308.994690,242.531586 
	C309.026764,242.691284 309.026886,242.868805 308.994629,243.028427 
	C307.120575,252.300461 311.098724,257.507111 319.448608,261.825500 
	C325.926331,265.175659 330.246674,265.417633 336.828735,261.943756 
	C345.121490,257.567017 348.138031,252.495590 347.730408,243.117828 
	C347.413666,235.830994 345.459320,231.951202 339.167755,227.953781 
	C331.258240,222.928360 324.799133,221.948059 317.041565,228.550278 
z"/>
<path fill="#6DA75D" opacity="1.000000" stroke="none" 
	d="
M129.050980,212.020096 
	C129.992203,211.020691 130.762711,209.727890 131.900284,209.065903 
	C148.918396,199.162598 165.972855,189.321411 183.063461,179.543777 
	C184.404587,178.776520 186.077515,178.589264 187.827148,178.776550 
	C188.336761,180.529236 188.380478,181.773102 188.929184,182.726242 
	C197.925522,198.353348 206.918701,213.983170 216.072144,229.518387 
	C218.807770,234.161316 222.031631,238.516571 225.058472,243.362030 
	C226.852341,247.062775 228.483765,250.485855 230.414124,253.731125 
	C234.854126,261.195557 239.439575,268.573486 243.966003,275.986542 
	C243.045670,277.166656 242.368500,278.762573 241.168442,279.464294 
	C223.872208,289.577942 206.529633,299.613525 189.105331,309.504242 
	C187.864563,310.208588 185.900192,309.638214 184.336914,309.181824 
	C184.317596,307.940002 184.467743,307.041504 184.115829,306.433594 
	C172.441238,286.267944 160.718628,266.130096 148.961014,245.636963 
	C146.655533,241.291916 144.476852,237.247009 142.110229,233.315262 
	C137.816177,226.181351 133.410217,219.114777 129.050980,212.020096 
z"/>
<path fill="#69A263" opacity="1.000000" stroke="none" 
	d="
M310.453400,404.253357 
	C292.956329,414.347015 275.750275,424.174408 258.679871,434.232086 
	C255.826324,435.913330 253.807541,435.920044 251.027740,434.174744 
	C244.602417,430.140625 237.932846,426.495483 231.203674,422.600769 
	C236.666824,418.537598 241.741226,417.789917 246.884552,422.234985 
	C252.131546,426.769623 256.896820,426.281921 262.861115,422.484894 
	C275.770813,414.266174 289.258484,406.948517 302.594543,399.412384 
	C305.055511,398.021698 306.075256,396.504913 306.050903,393.593353 
	C305.907349,376.429626 306.074738,359.262817 305.841003,342.101074 
	C305.816345,340.291229 304.303894,337.761719 302.732086,336.828003 
	C287.845428,327.984894 272.834839,319.346680 257.732605,310.876465 
	C256.270477,310.056458 253.552917,310.054688 252.090912,310.873871 
	C236.985077,319.337036 221.969055,327.965454 207.084076,336.810455 
	C205.526627,337.735901 204.109558,340.336517 204.085220,342.179169 
	C203.858475,359.341095 203.859650,376.508423 204.083557,393.670410 
	C204.107559,395.511200 205.552719,397.856232 207.064392,399.042328 
	C209.919388,401.282410 213.264496,402.918427 216.473663,404.682220 
	C223.848709,408.735687 230.019730,405.245941 230.057831,396.890442 
	C230.138351,379.237213 230.082367,361.583344 230.082367,343.490784 
	C232.701843,343.490784 235.074600,343.490784 237.888702,343.490784 
	C237.997620,344.813538 238.216095,346.245544 238.218109,347.677917 
	C238.241776,364.509491 237.635773,381.369110 238.423080,398.163818 
	C239.044693,411.424347 226.084717,420.795746 213.484390,412.442047 
	C207.824463,408.689667 199.739014,406.619873 196.696518,401.461365 
	C193.761719,396.485443 195.844315,388.515717 195.826721,381.860931 
	C195.787964,367.195862 195.898697,352.529724 195.746216,337.866150 
	C195.714478,334.815216 196.669693,333.123108 199.354309,331.595490 
	C216.864868,321.631836 234.225998,311.404968 251.770126,301.501831 
	C253.369797,300.598816 256.356079,300.582672 257.950867,301.481354 
	C275.646973,311.453735 293.160004,321.750458 310.822906,331.782776 
	C313.394012,333.243134 314.150757,334.893707 314.135925,337.705811 
	C314.029480,357.869843 314.033417,378.034912 314.131744,398.199066 
	C314.145386,400.992615 313.678192,403.114227 310.453400,404.253357 
z"/>
<path fill="#6AA264" opacity="1.000000" stroke="none" 
	d="
M288.626190,359.728821 
	C285.229095,360.104492 283.344452,359.498718 281.596954,356.308228 
	C280.136383,353.641663 276.637634,350.888855 273.725433,350.491760 
	C268.930634,349.837891 263.783752,350.625275 258.986298,351.701294 
	C257.107574,352.122650 255.771133,354.961945 254.187714,356.700012 
	C255.847107,358.110443 257.305054,360.286285 259.204132,360.786102 
	C264.650665,362.219635 270.291870,362.895844 275.824585,364.026398 
	C278.899963,364.654816 282.000305,365.357025 284.932617,366.447479 
	C290.381226,368.473724 293.941833,372.343536 293.884430,378.379211 
	C293.822998,384.837341 291.172882,390.184204 284.804321,392.571625 
	C275.690002,395.988373 266.128998,396.170593 256.790009,394.135590 
	C248.568878,392.344147 243.849106,385.243500 244.317429,377.069092 
	C248.157974,376.960754 251.779419,375.180725 253.997055,381.194153 
	C256.467621,387.893433 278.066620,389.228882 282.597809,383.591492 
	C285.461273,380.028961 284.425934,376.054962 279.709656,374.743134 
	C273.967773,373.145996 268.019318,372.290466 262.158447,371.122986 
	C260.204529,370.733826 258.208832,370.503021 256.295593,369.971680 
	C251.597549,368.667053 246.790176,367.436371 246.060608,361.347504 
	C245.258636,354.654572 246.018112,348.318207 252.593277,344.891266 
	C263.008362,339.462921 273.959320,339.146759 283.977295,345.361969 
	C287.446320,347.514191 289.132629,352.656494 291.317596,356.607544 
	C291.577454,357.077515 289.839844,358.652100 288.626190,359.728821 
z"/>
<path fill="#639D58" opacity="1.000000" stroke="none" 
	d="
M225.031799,243.003616 
	C222.031631,238.516571 218.807770,234.161316 216.072144,229.518387 
	C206.918701,213.983170 197.925522,198.353348 188.929184,182.726242 
	C188.380478,181.773102 188.336761,180.529236 188.085541,179.019226 
	C206.457581,189.132751 224.803955,199.644516 243.134048,210.184616 
	C243.512848,210.402451 243.702698,210.948883 243.687073,211.904358 
	C241.740707,215.336960 240.140305,218.238876 238.425003,221.071228 
	C233.987640,228.398392 229.499603,235.694885 225.031799,243.003616 
z"/>
<path fill="#3C883A" opacity="1.000000" stroke="none" 
	d="
M149.003082,245.988144 
	C160.718628,266.130096 172.441238,286.267944 184.115829,306.433594 
	C184.467743,307.041504 184.317596,307.940002 184.142029,308.903992 
	C166.091888,298.900879 148.297150,288.703857 130.527283,278.463684 
	C129.894363,278.098969 129.507538,277.307159 129.347076,276.188843 
	C130.968933,273.757080 132.277191,271.868652 133.525742,269.941528 
	C138.694702,261.963440 143.845566,253.973648 149.003082,245.988144 
z"/>
<path fill="#55A344" opacity="1.000000" stroke="none" 
	d="
M148.961029,245.636963 
	C143.845566,253.973648 138.694702,261.963440 133.525742,269.941528 
	C132.277191,271.868652 130.968933,273.757080 129.401672,275.835205 
	C129.049057,254.986816 128.982941,233.966553 128.983902,212.483185 
	C133.410217,219.114777 137.816177,226.181351 142.110229,233.315262 
	C144.476852,237.247009 146.655533,241.291916 148.961029,245.636963 
z"/>
<path fill="#3C8739" opacity="1.000000" stroke="none" 
	d="
M225.058472,243.362030 
	C229.499603,235.694885 233.987640,228.398392 238.425003,221.071228 
	C240.140305,218.238876 241.740707,215.336960 243.650757,212.257843 
	C243.968964,233.051895 244.029861,254.054840 244.028381,275.522156 
	C239.439575,268.573486 234.854126,261.195557 230.414124,253.731125 
	C228.483765,250.485855 226.852341,247.062775 225.058472,243.362030 
z"/>
<path fill="#68A162" opacity="1.000000" stroke="none" 
	d="
M460.339233,237.981018 
	C461.678162,236.930725 462.794769,236.206909 463.946960,235.545181 
	C471.536682,231.186310 473.965179,231.205261 480.555328,236.978119 
	C481.908203,238.163177 482.155457,241.061752 482.214722,243.189926 
	C482.416565,250.434372 479.030487,254.760101 472.145721,256.607178 
	C468.834229,257.495605 460.027496,250.804337 460.005615,247.324936 
	C459.986816,244.329086 460.086243,241.332489 460.339233,237.981018 
z"/>
<path fill="#F0F0F0" opacity="1.000000" stroke="none" 
	d="
M317.351440,228.349365 
	C324.799133,221.948059 331.258240,222.928360 339.167755,227.953781 
	C345.459320,231.951202 347.413666,235.830994 347.730408,243.117828 
	C348.138031,252.495590 345.121490,257.567017 336.828735,261.943756 
	C330.246674,265.417633 325.926331,265.175659 319.448608,261.825500 
	C311.098724,257.507111 307.120575,252.300461 308.994629,243.028427 
	C309.026886,242.868805 309.026764,242.691284 308.994690,242.531586 
	C307.585052,235.514511 310.217804,230.827133 317.351440,228.349365 
z"/>
</svg>