<svg version="1.1" id="Layer_1" xmlns="http://www.w3.org/2000/svg" xmlns:xlink="http://www.w3.org/1999/xlink" x="0px" y="0px"
	 width="100%" viewBox="0 0 280 280" enable-background="new 0 0 280 280" xml:space="preserve">
<path fill="#000000" opacity="1.000000" stroke="none" 
	d="
M127.000000,281.000000 
	C84.666664,281.000000 42.833332,281.000000 1.000000,281.000000 
	C1.000000,187.666672 1.000000,94.333336 1.000000,1.000000 
	C94.333336,1.000000 187.666672,1.000000 281.000000,1.000000 
	C281.000000,94.333336 281.000000,187.666672 281.000000,281.000000 
	C229.833328,281.000000 178.666672,281.000000 127.000000,281.000000 
M138.836914,133.330566 
	C152.438644,119.685524 166.039536,106.039635 179.642502,92.395821 
	C185.632217,86.388107 191.710526,80.465515 197.582092,74.344551 
	C200.454407,71.350212 200.392517,67.798576 197.339005,65.055420 
	C194.319962,62.343235 190.864380,62.719944 187.967255,65.603378 
	C172.761368,80.737190 157.574432,95.890198 142.422440,111.077950 
	C129.031555,124.500420 115.726997,138.009064 102.325279,151.420639 
	C90.101936,163.652985 77.770523,175.777344 65.552933,188.015381 
	C62.677910,190.895187 62.385529,194.380493 65.114304,197.398056 
	C67.693573,200.250320 70.965973,200.318787 74.044060,197.857773 
	C75.339615,196.821930 76.513382,195.626022 77.689835,194.450180 
	C97.905800,174.244766 118.113510,154.031128 138.836914,133.330566 
M148.666489,189.159866 
	C144.783661,193.039093 140.881577,196.899307 137.024658,200.804138 
	C134.370819,203.490936 133.476852,206.706879 135.941116,209.756744 
	C138.505783,212.930908 142.004822,212.803268 145.374100,210.823257 
	C146.349594,210.249969 147.114670,209.301102 147.934113,208.482285 
	C163.581482,192.846603 179.219910,177.201965 194.866440,161.565460 
	C199.810059,156.625000 204.829193,151.758575 209.704269,146.751617 
	C212.707336,143.667297 212.942551,138.980194 210.471130,136.328949 
	C208.227905,133.922485 203.878464,134.021790 201.043304,136.829971 
	C192.654236,145.139145 184.382492,153.566605 176.030121,161.913040 
	C167.092178,170.844635 158.114685,179.736649 148.666489,189.159866 
z"/>
<path fill="#F9F9F9" opacity="1.000000" stroke="none" 
	d="
M138.579971,133.574921 
	C118.113510,154.031128 97.905800,174.244766 77.689835,194.450180 
	C76.513382,195.626022 75.339615,196.821930 74.044060,197.857773 
	C70.965973,200.318787 67.693573,200.250320 65.114304,197.398056 
	C62.385529,194.380493 62.677910,190.895187 65.552933,188.015381 
	C77.770523,175.777344 90.101936,163.652985 102.325279,151.420639 
	C115.726997,138.009064 129.031555,124.500420 142.422440,111.077950 
	C157.574432,95.890198 172.761368,80.737190 187.967255,65.603378 
	C190.864380,62.719944 194.319962,62.343235 197.339005,65.055420 
	C200.392517,67.798576 200.454407,71.350212 197.582092,74.344551 
	C191.710526,80.465515 185.632217,86.388107 179.642502,92.395821 
	C166.039536,106.039635 152.438644,119.685524 138.579971,133.574921 
z"/>
<path fill="#F8F8F8" opacity="1.000000" stroke="none" 
	d="
M148.910461,188.902908 
	C158.114685,179.736649 167.092178,170.844635 176.030121,161.913040 
	C184.382492,153.566605 192.654236,145.139145 201.043304,136.829971 
	C203.878464,134.021790 208.227905,133.922485 210.471130,136.328949 
	C212.942551,138.980194 212.707336,143.667297 209.704269,146.751617 
	C204.829193,151.758575 199.810059,156.625000 194.866440,161.565460 
	C179.219910,177.201965 163.581482,192.846603 147.934113,208.482285 
	C147.114670,209.301102 146.349594,210.249969 145.374100,210.823257 
	C142.004822,212.803268 138.505783,212.930908 135.941116,209.756744 
	C133.476852,206.706879 134.370819,203.490936 137.024658,200.804138 
	C140.881577,196.899307 144.783661,193.039093 148.910461,188.902908 
z"/>
</svg>